<?xml version="1.0" encoding="utf-8"?>
<!-- Generator: Adobe Illustrator 16.0.0, SVG Export Plug-In . SVG Version: 6.00 Build 0)  -->
<!DOCTYPE svg PUBLIC "-//W3C//DTD SVG 1.1//EN" "http://www.w3.org/Graphics/SVG/1.1/DTD/svg11.dtd">
<svg version="1.1" id="Layer_1" xmlns="http://www.w3.org/2000/svg" xmlns:xlink="http://www.w3.org/1999/xlink" x="0px" y="0px"
	 width="300px" height="400px" viewBox="0 0 300 400" enable-background="new 0 0 300 400" xml:space="preserve">
<line display="none" stroke="#000000" stroke-miterlimit="10" x1="19.243" y1="8.243" x2="19.243" y2="392.703"/>
<rect x="38.135" y="31.284" fill="none" width="193.081" height="41.216"/>
<text transform="matrix(1 0 0 1 38.1353 65.6519)" fill="#E0E0DF" font-family="'Simplifica'" font-size="48">DESIGN</text>
<rect x="38.135" y="80.892" fill="none" width="82.432" height="42.567"/>
<text transform="matrix(1 0 0 1 38.1353 115.2593)" fill="#E0E0DF" font-family="'Simplifica'" font-size="48">IS</text>
<rect x="33.514" y="130.459" fill="none" width="255.405" height="55.406"/>
<text transform="matrix(1 0 0 1 33.5137 164.8267)" fill="#E0E0DF" font-family="'Simplifica'" font-size="48">THE POWER</text>
<rect x="32.986" y="178.595" fill="none" width="104.73" height="51.351"/>
<text transform="matrix(1 0 0 1 32.9863 212.9619)" fill="#E0E0DF" font-family="'Simplifica'" font-size="48">THAT</text>
<rect x="104.081" y="182" fill="none" width="137.837" height="61.486"/>
<text transform="matrix(1 0 0 1 104.0811 209.6475)" fill="#E0E0DF" font-family="'DexteraTrial'" font-size="36">CREATES</text>
<rect x="36.135" y="226.812" fill="none" width="119.595" height="45.946"/>
<text transform="matrix(1 0 0 1 36.1353 261.1787)" fill="#E0E0DF" font-family="'Simplifica'" font-size="48">OPINION</text>
</svg>
