<svg xmlns="http://www.w3.org/2000/svg"  version="1.1" id="Layer_1" x="0px" y="0px" width="50px" height="50px" viewBox="0 0 50 50" enable-background="new 0 0 50 50" xml:space="preserve">
<path fill="#111111" d="M26.039,4.972c2.88,0,5.76,0,8.64,0c-0.006,0.085-0.017,0.171-0.017,0.256  c-0.001,2.269-0.001,4.538-0.001,6.807c0,0.084,0,0.168,0,0.265c-0.106,0-0.186,0-0.264,0c-1.506,0-3.012,0.002-4.518-0.001  c-0.788-0.001-1.369,0.337-1.695,1.056c-0.127,0.28-0.233,0.587-0.263,0.89c-0.053,0.525-0.049,1.057-0.053,1.586  c-0.006,1.075-0.002,2.149-0.002,3.224c0,0.069,0,0.14,0,0.227c2.457,0,4.881,0,7.323,0c-0.022,0.078-0.035,0.135-0.052,0.191  c-0.555,1.831-1.112,3.663-1.66,5.496c-0.052,0.174-0.131,0.218-0.305,0.217c-1.685-0.008-3.37-0.005-5.056-0.005  c-0.077,0-0.154,0-0.252,0c0,0.109,0,0.194,0,0.279c0,6.449,0,12.898,0,19.347c0,0.073,0.003,0.145,0.004,0.218  c-2.801,0-5.601,0-8.401,0c-0.001-0.099-0.004-0.199-0.004-0.298c0.017-6.422,0.034-12.843,0.052-19.265c0-0.09,0-0.179,0-0.27  c-0.072-0.005-0.111-0.01-0.151-0.01c-1.473,0-2.946-0.001-4.419,0c-0.046,0-0.091,0.009-0.137,0.015c0-1.978,0-3.955,0-5.933  c0.033,0.003,0.066,0.008,0.099,0.008c1.492,0.001,2.984,0.001,4.476,0c0.044,0,0.088-0.01,0.152-0.018c0-0.087,0-0.165,0-0.243  c0.004-2.341,0.001-4.682,0.018-7.022c0.004-0.535,0.043-1.074,0.121-1.604c0.165-1.122,0.588-2.141,1.325-3.017  c1.022-1.215,2.373-1.857,3.888-2.199C25.267,5.086,25.655,5.038,26.039,4.972z"/>
</svg>