<?xml version="1.0" encoding="utf-8"?>
<!-- Generator: Adobe Illustrator 16.0.0, SVG Export Plug-In . SVG Version: 6.00 Build 0)  -->
<!DOCTYPE svg PUBLIC "-//W3C//DTD SVG 1.1//EN" "http://www.w3.org/Graphics/SVG/1.1/DTD/svg11.dtd">
<svg version="1.1" id="Layer_1" xmlns="http://www.w3.org/2000/svg" xmlns:xlink="http://www.w3.org/1999/xlink" x="0px" y="0px"
	 width="2360px" height="250px" viewBox="0 0 2360 250" enable-background="new 0 0 2360 250" xml:space="preserve">
<g>
	<g>
		<defs>
			<rect id="SVGID_1_" x="875.441" y="22.284" width="317.5" height="238.125"/>
		</defs>
		<clipPath id="SVGID_2_">
			<use xlink:href="#SVGID_1_"  overflow="visible"/>
		</clipPath>
		<g clip-path="url(#SVGID_2_)">
			<defs>
				<rect id="SVGID_3_" x="875.441" y="22.284" width="317.5" height="238.125"/>
			</defs>
			<clipPath id="SVGID_4_">
				<use xlink:href="#SVGID_3_"  overflow="visible"/>
			</clipPath>
			<path clip-path="url(#SVGID_4_)" d="M1130.791,41.492H943.09c-7.165,0-13.014,5.867-13.014,13.005v134.957
				c0,7.138,5.849,13.004,13.014,13.004h187.701c7.155,0,13.004-5.866,13.004-13.004V54.497
				C1143.795,47.358,1137.946,41.492,1130.791,41.492 M1134.034,193.337H938.86V49.167h195.173V193.337z"/>
			<polygon clip-path="url(#SVGID_4_)" points="1013.562,206.593 989.003,231.545 1086.646,231.545 1062.078,206.593 			"/>
		</g>
		<g clip-path="url(#SVGID_2_)">
			<text transform="matrix(1 0 0 1 1011.5171 181.3262)" font-family="'NixieOne'" font-size="23.8125">WEB</text>
		</g>
		<g clip-path="url(#SVGID_2_)">
			<defs>
				<rect id="SVGID_5_" x="875.441" y="22.284" width="317.5" height="238.125"/>
			</defs>
			<clipPath id="SVGID_6_">
				<use xlink:href="#SVGID_5_"  overflow="visible"/>
			</clipPath>
			<path clip-path="url(#SVGID_6_)" fill-rule="evenodd" clip-rule="evenodd" fill="#FE0000" d="M1017.283,96.724
				c-1.7-11.555,6.077-22.483,17.274-25.115c12.417-2.918,25.143,5.438,27.293,18.034c0.426,2.49,0.518,4.958,0.085,7.445
				c-0.553,0.214-1.021-0.087-1.508-0.252c-6.32-2.144-12.453-1.743-18.396,1.334c-0.751,0.389-1.382,0.987-2.204,1.249
				c-0.135,0.022-0.267,0.012-0.396-0.028c-2.968-1.943-6.136-3.37-9.685-3.883c-3.742-0.542-7.392-0.224-10.964,1.017
				C1018.3,96.691,1017.83,97.018,1017.283,96.724"/>
			<path clip-path="url(#SVGID_6_)" fill-rule="evenodd" clip-rule="evenodd" fill="#0000FE" d="M1062.079,97.214
				c8.885,3.99,14.224,13.285,13.178,22.969c-1.221,11.303-10.087,18.917-19.53,20.1c-5.5,0.688-10.571-0.445-15.252-3.382
				c-0.369-0.232-0.789-0.413-1.018-0.824c0.077-0.551,0.56-0.753,0.918-1.056c5.26-4.448,8.119-10.061,8.271-16.995
				c0.026-1.204-0.047-2.406-0.059-3.609c0.195-0.499,0.661-0.676,1.083-0.9c6.139-3.259,10.057-8.247,11.719-15.004
				C1061.507,98.034,1061.428,97.421,1062.079,97.214"/>
			<path clip-path="url(#SVGID_6_)" fill-rule="evenodd" clip-rule="evenodd" fill="#00FE00" d="M1039.233,136.083
				c-2.702,2.187-5.868,3.341-9.234,3.854c-12.422,1.896-23.56-5.957-25.973-18.231c-1.994-10.143,3.778-21.022,13.166-24.817
				c0.422,0.202,0.489,0.61,0.574,1.003c1.534,7.144,5.582,12.361,12.047,15.727c0.214,0.112,0.426,0.229,0.587,0.418
				c0.069,0.106,0.115,0.221,0.142,0.346c-0.419,4.112-0.14,8.13,1.492,11.993c1.425,3.371,3.517,6.243,6.287,8.627
				C1038.683,135.313,1039.136,135.548,1039.233,136.083"/>
			<path clip-path="url(#SVGID_6_)" fill-rule="evenodd" clip-rule="evenodd" fill="#00FEFE" d="M1039.233,136.083
				c-6.633-5.16-9.623-11.956-9.105-20.318c0.029-0.477,0.162-0.948,0.247-1.421c0.429-0.343,0.863-0.111,1.258,0.037
				c5.327,1.997,10.648,2,15.974,0.002c0.264-0.099,0.54-0.17,0.827-0.176c0.142,0,0.263,0.052,0.363,0.152
				c0.913,8.971-2.079,16.263-9.339,21.718c0,0-0.111,0.037-0.111,0.037L1039.233,136.083z"/>
			<path clip-path="url(#SVGID_6_)" fill-rule="evenodd" clip-rule="evenodd" fill="#FEFE00" d="M1030.274,114.116
				c-6.968-3.198-11.1-8.659-12.808-16.054c-0.09-0.391-0.182-0.782-0.274-1.173c0.011-0.065,0.042-0.121,0.09-0.165
				c3.458-1.365,7.035-2.048,10.754-1.738c4.215,0.353,8.102,1.646,11.492,4.25c0.187,0.544-0.302,0.696-0.582,0.92
				c-4.216,3.37-6.943,7.667-8.105,12.945C1030.755,113.496,1030.682,113.901,1030.274,114.116"/>
			<path clip-path="url(#SVGID_6_)" fill-rule="evenodd" clip-rule="evenodd" fill="#FE00FE" d="M1062.079,97.214
				c-0.609,2.033-1.06,4.111-1.999,6.043c-2.255,4.645-5.648,8.157-10.239,10.516c-0.355,0.183-0.697,0.39-1.045,0.586
				c-0.038-0.033-0.079-0.066-0.119-0.098c-0.336-0.385-0.374-0.879-0.473-1.345c-1.085-5.101-3.705-9.272-7.653-12.639
				c-0.333-0.284-0.739-0.511-0.75-1.027c6.513-4.469,13.504-5.169,20.902-2.645c0.417,0.142,0.821,0.321,1.232,0.482
				C1062.02,97.094,1062.068,97.135,1062.079,97.214"/>
			<path clip-path="url(#SVGID_6_)" fill-rule="evenodd" clip-rule="evenodd" fill="#FEFEFE" d="M1039.802,99.25
				c2.687,2.208,5.031,4.707,6.618,7.841c1.146,2.264,2.03,4.614,2.258,7.169c-5.4,2.442-10.898,2.569-16.479,0.687
				c-0.607-0.205-1.216-0.403-1.824-0.604c-0.034-0.076-0.067-0.152-0.101-0.228c0.801-3.826,2.25-7.353,4.705-10.438
				c1.333-1.675,2.969-3.028,4.55-4.442C1039.62,99.241,1039.711,99.246,1039.802,99.25"/>
		</g>
	</g>
</g>
<g>
	<g>
		<defs>
			<rect id="SVGID_7_" x="628.441" y="22.101" width="292" height="219"/>
		</defs>
		<clipPath id="SVGID_8_">
			<use xlink:href="#SVGID_7_"  overflow="visible"/>
		</clipPath>
		<polygon clip-path="url(#SVGID_8_)" points="819.154,40.351 819.154,67.178 846.86,67.178 		"/>
		<polygon clip-path="url(#SVGID_8_)" fill="none" stroke="#000000" stroke-miterlimit="10" points="819.154,40.351 819.154,67.178 
			846.86,67.178 		"/>
		<g clip-path="url(#SVGID_8_)">
			<defs>
				<rect id="SVGID_9_" x="628.441" y="22.101" width="292" height="219"/>
			</defs>
			<clipPath id="SVGID_10_">
				<use xlink:href="#SVGID_9_"  overflow="visible"/>
			</clipPath>
			<path clip-path="url(#SVGID_10_)" fill-rule="evenodd" clip-rule="evenodd" fill="#00ACEE" d="M746.653,117.307
				c-0.017-5.036,1.074-9.807,3.643-14.156c4.792-8.115,11.897-12.923,21.273-13.823c16.06-1.541,27.853,9.896,29.996,22.671
				c0.286,1.704,0.483,3.404,0.349,5.131c-0.462,0.169-0.824-0.109-1.185-0.298c-4.877-2.546-10.104-3.326-15.511-2.887
				c-2.957,0.24-5.814,1.057-8.512,2.35c-0.673,0.323-1.32,0.703-2.022,0.967c-0.161,0.043-0.322,0.045-0.484,0.01
				c-1.945-0.895-3.852-1.873-5.943-2.43c-7.051-1.878-13.829-1.216-20.34,2.094c-0.317,0.162-0.614,0.371-0.967,0.456
				C746.836,117.411,746.738,117.382,746.653,117.307"/>
			<path clip-path="url(#SVGID_10_)" fill-rule="evenodd" clip-rule="evenodd" fill="#EC018B" d="M801.985,117.291
				c5.896,3.395,9.944,8.344,12.225,14.721c5.922,16.56-5.041,34.389-22.57,36.638c-5.844,0.75-11.447-0.205-16.665-3.058
				c-0.139-0.076-0.26-0.186-0.389-0.279c-0.056-0.464,0.325-0.597,0.614-0.777c4.931-3.101,8.524-7.359,10.814-12.688
				c1.197-2.787,1.911-5.72,2-8.775c0.022-0.781,0.206-1.542,0.256-2.318c0.026-0.099,0.07-0.189,0.127-0.273
				c2.258-1.481,4.372-3.137,6.187-5.152c3.8-4.218,6.139-9.118,6.89-14.759c0.111-0.835,0.23-1.67,0.208-2.518
				C801.674,117.772,801.651,117.45,801.985,117.291"/>
			<path clip-path="url(#SVGID_10_)" fill-rule="evenodd" clip-rule="evenodd" fill="#FDF100" d="M774.298,165.272
				c-2.845,1.805-5.992,2.85-9.287,3.3c-6.354,0.868-12.404-0.1-18.052-3.312c-9.374-5.331-14.938-16.1-13.744-26.802
				c1-8.96,5.353-15.85,12.888-20.757c0.189-0.123,0.367-0.263,0.55-0.395c0.02,0.032,0.046,0.056,0.08,0.072
				c0.498,0.93,0.254,1.966,0.395,2.947c1.217,8.484,5.431,15.031,12.572,19.727c0.271,0.179,0.557,0.339,0.756,0.606
				c0.055,0.086,0.093,0.179,0.119,0.276c0.289,3.558,0.683,7.088,2.062,10.439c2.254,5.478,5.883,9.793,10.813,13.041
				C773.789,164.639,774.245,164.762,774.298,165.272"/>
			<path clip-path="url(#SVGID_10_)" fill-rule="evenodd" clip-rule="evenodd" fill="#ED1D25" d="M774.298,165.272
				c-2.997-1.861-5.687-4.076-7.866-6.871c-4.009-5.144-6.027-10.965-5.949-17.499c0.46-0.186,0.82,0.099,1.184,0.283
				c3.61,1.829,7.407,2.865,11.478,3.018c4.707,0.178,9.147-0.717,13.37-2.781c0.595-0.291,1.133-0.791,1.882-0.66
				c0.011,3.892-0.64,7.665-2.172,11.249c-1.402,3.277-3.324,6.239-5.872,8.745c-1.545,1.52-3.184,2.95-5.09,4.029
				c-0.249,0.141-0.546,0.229-0.675,0.527C774.49,165.3,774.394,165.286,774.298,165.272"/>
			<path clip-path="url(#SVGID_10_)" fill-rule="evenodd" clip-rule="evenodd" fill="#2E3191" d="M801.985,117.291
				c-0.121,6.455-2.234,12.188-6.31,17.178c-2.022,2.476-4.385,4.587-7.205,6.144c-0.399-0.278-0.432-0.709-0.443-1.131
				c-0.127-5.171-1.979-9.773-4.817-13.986c-2.031-3.014-4.645-5.495-7.748-7.432c-0.358-0.224-0.889-0.329-0.866-0.926
				c2.872-1.816,6.047-2.827,9.373-3.293c6.044-0.847,11.824,0.055,17.243,2.96c0.226,0.122,0.467,0.217,0.701,0.325
				C801.949,117.178,801.972,117.232,801.985,117.291"/>
			<path clip-path="url(#SVGID_10_)" fill-rule="evenodd" clip-rule="evenodd" fill="#37363A" d="M774.597,117.138
				c1.572,1.128,3.18,2.196,4.638,3.49c2.383,2.114,4.276,4.591,5.785,7.371c1.973,3.633,3.201,7.486,3.273,11.661
				c0.005,0.317,0.116,0.635,0.177,0.953c-0.013,0.055-0.038,0.104-0.073,0.149c-3.313,1.783-6.771,3.089-10.544,3.54
				c-5.606,0.672-10.923-0.194-15.974-2.715c-0.463-0.23-0.93-0.456-1.396-0.685c-0.038-0.051-0.068-0.107-0.09-0.168
				c-0.298-0.926-0.129-1.877-0.013-2.785c0.761-5.917,3.1-11.121,7.136-15.554c1.624-1.783,3.429-3.335,5.447-4.646
				c0.404-0.263,0.798-0.563,1.308-0.605C774.38,117.142,774.489,117.139,774.597,117.138"/>
			<path clip-path="url(#SVGID_10_)" fill-rule="evenodd" clip-rule="evenodd" fill="#00A650" d="M774.271,117.143
				c-1.725,1.206-3.469,2.374-5.017,3.825c-3.236,3.035-5.574,6.636-7.14,10.772c-1.099,2.902-1.495,5.93-1.72,8.994
				c-6.914-4.081-11.226-10.072-13.062-17.859c-0.424-1.8-0.701-3.632-0.599-5.497c2.603-1.729,5.504-2.741,8.535-3.315
				c6.335-1.2,12.427-0.429,18.186,2.57C773.738,116.782,773.999,116.973,774.271,117.143"/>
		</g>
		<g clip-path="url(#SVGID_8_)">
			<text transform="matrix(1 0 0 1 739.895 203.9873)"><tspan x="0" y="0" font-family="'NixieOne'" font-size="21.9">P</tspan><tspan x="13.775" y="0" font-family="'NixieOne'" font-size="21.9">RINT</tspan></text>
		</g>
		<g clip-path="url(#SVGID_8_)">
			<defs>
				<rect id="SVGID_11_" x="628.441" y="22.101" width="292" height="219"/>
			</defs>
			<clipPath id="SVGID_12_">
				<use xlink:href="#SVGID_11_"  overflow="visible"/>
			</clipPath>
			<polygon clip-path="url(#SVGID_12_)" fill="none" stroke="#000000" stroke-width="27" stroke-miterlimit="10" points="
				821.221,41.993 699.799,41.993 699.799,223.763 842.514,223.763 842.514,64.623 			"/>
		</g>
	</g>
</g>
<g>
	<g>
		<defs>
			<rect id="SVGID_13_" x="1128.447" y="10.418" width="316.833" height="237.625"/>
		</defs>
		<clipPath id="SVGID_14_">
			<use xlink:href="#SVGID_13_"  overflow="visible"/>
		</clipPath>
		<g clip-path="url(#SVGID_14_)">
			<defs>
				<rect id="SVGID_15_" x="1128.447" y="10.418" width="316.833" height="237.625"/>
			</defs>
			<clipPath id="SVGID_16_">
				<use xlink:href="#SVGID_15_"  overflow="visible"/>
			</clipPath>
			<path clip-path="url(#SVGID_16_)" d="M1334.463,27.339h-85.743c-8.202,0-14.829,6.651-14.829,14.854v174.093
				c0,8.178,6.627,14.835,14.829,14.835h85.743c8.184,0,14.835-6.651,14.835-14.835V42.193
				C1349.292,33.991,1342.646,27.339,1334.463,27.339 M1339.363,209.4h-95.537V47.347h95.537V209.4z M1311.865,38.446h-39.757
				v-4.333h39.764v4.333H1311.865z M1328.478,36.864c0,2.098-1.708,3.793-3.8,3.793c-2.098,0-3.799-1.702-3.799-3.793
				c0-2.091,1.701-3.793,3.799-3.793C1326.77,33.064,1328.478,34.766,1328.478,36.864 M1309.686,221.241h-36.201v-4.806h36.201
				V221.241z"/>
		</g>
		<g clip-path="url(#SVGID_14_)">
			<defs>
				<rect id="SVGID_17_" x="1128.447" y="10.418" width="316.833" height="237.625"/>
			</defs>
			<clipPath id="SVGID_18_">
				<use xlink:href="#SVGID_17_"  overflow="visible"/>
			</clipPath>
			<path clip-path="url(#SVGID_18_)" fill="#2DDFE8" d="M1273.794,78.886c0,2.432-1.972,4.403-4.403,4.403h-16.144
				c-2.433,0-4.403-1.971-4.403-4.403V63.93c0-2.431,1.971-4.402,4.403-4.402h16.144c2.432,0,4.403,1.971,4.403,4.402V78.886z"/>
			<path clip-path="url(#SVGID_18_)" fill="#EACA2A" d="M1303.894,109.382c0,2.432-1.972,4.403-4.403,4.403h-16.145
				c-2.432,0-4.403-1.971-4.403-4.403V94.425c0-2.432,1.972-4.403,4.403-4.403h16.145c2.432,0,4.403,1.971,4.403,4.403V109.382z"/>
			<path clip-path="url(#SVGID_18_)" fill="#E8922D" d="M1333.597,109.382c0,2.432-1.972,4.403-4.403,4.403h-16.145
				c-2.432,0-4.403-1.971-4.403-4.403V94.425c0-2.432,1.972-4.403,4.403-4.403h16.145c2.432,0,4.403,1.971,4.403,4.403V109.382z"/>
			<path clip-path="url(#SVGID_18_)" fill="#A9EA2A" d="M1333.597,78.887c0,2.432-1.972,4.403-4.403,4.403h-16.145
				c-2.432,0-4.403-1.971-4.403-4.403V63.93c0-2.432,1.972-4.403,4.403-4.403h16.145c2.432,0,4.403,1.972,4.403,4.403V78.887z"/>
			<path clip-path="url(#SVGID_18_)" fill="#2AEA77" d="M1303.894,78.887c0,2.432-1.972,4.403-4.403,4.403h-16.145
				c-2.432,0-4.403-1.971-4.403-4.403V63.93c0-2.432,1.972-4.403,4.403-4.403h16.145c2.432,0,4.403,1.972,4.403,4.403V78.887z"/>
			<path clip-path="url(#SVGID_18_)" fill="#EDED29" d="M1273.794,109.382c0,2.432-1.972,4.403-4.402,4.403h-16.146
				c-2.432,0-4.402-1.971-4.402-4.403V94.425c0-2.432,1.971-4.403,4.402-4.403h16.146c2.431,0,4.402,1.971,4.402,4.403V109.382z"/>
			<path clip-path="url(#SVGID_18_)" fill="#EA772A" d="M1273.794,138.293c0,2.432-1.972,4.402-4.402,4.402h-16.146
				c-2.432,0-4.402-1.971-4.402-4.402v-14.957c0-2.432,1.971-4.403,4.402-4.403h16.146c2.431,0,4.402,1.972,4.402,4.403V138.293z"/>
			<path clip-path="url(#SVGID_18_)" fill="#8AF9F9" d="M1269.834,76.609c0,1.721-1.396,3.116-3.116,3.116h-11.194
				c-1.721,0-3.115-1.395-3.115-3.116V65.811c0-1.721,1.395-3.116,3.115-3.116h11.194c1.721,0,3.116,1.395,3.116,3.116V76.609z"/>
			<path clip-path="url(#SVGID_18_)" fill="#73FFAC" d="M1300.329,77.005c0,1.721-1.396,3.116-3.116,3.116h-11.193
				c-1.722,0-3.116-1.395-3.116-3.116V66.208c0-1.721,1.395-3.116,3.116-3.116h11.193c1.721,0,3.116,1.396,3.116,3.116V77.005z"/>
			<path clip-path="url(#SVGID_18_)" fill="#D2F973" d="M1330.032,77.005c0,1.721-1.396,3.116-3.116,3.116h-11.193
				c-1.722,0-3.116-1.395-3.116-3.116V66.208c0-1.721,1.395-3.116,3.116-3.116h11.193c1.721,0,3.116,1.396,3.116,3.116V77.005z"/>
			<path clip-path="url(#SVGID_18_)" fill="#FCF870" d="M1270.229,107.104c0,1.721-1.395,3.116-3.116,3.116h-11.193
				c-1.721,0-3.116-1.395-3.116-3.116V96.307c0-1.721,1.396-3.116,3.116-3.116h11.193c1.722,0,3.116,1.396,3.116,3.116V107.104z"/>
			<path clip-path="url(#SVGID_18_)" fill="#FFE473" d="M1300.329,107.104c0,1.721-1.396,3.116-3.116,3.116h-11.193
				c-1.722,0-3.116-1.395-3.116-3.116V96.307c0-1.721,1.395-3.116,3.116-3.116h11.193c1.721,0,3.116,1.396,3.116,3.116V107.104z"/>
			<path clip-path="url(#SVGID_18_)" fill="#F9A450" d="M1330.032,107.104c0,1.721-1.396,3.116-3.116,3.116h-11.193
				c-1.722,0-3.116-1.395-3.116-3.116V96.307c0-1.721,1.395-3.116,3.116-3.116h11.193c1.721,0,3.116,1.396,3.116,3.116V107.104z"/>
			<path clip-path="url(#SVGID_18_)" fill="#FC9B59" d="M1269.834,136.412c0,1.721-1.396,3.115-3.116,3.115h-11.194
				c-1.721,0-3.115-1.395-3.115-3.115v-10.798c0-1.721,1.395-3.116,3.115-3.116h11.194c1.721,0,3.116,1.396,3.116,3.116V136.412z"/>
		</g>
		<g clip-path="url(#SVGID_14_)">
			<text transform="matrix(1 0 0 1 1261.416 194.1094)"><tspan x="0" y="0" font-family="'NixieOne'" font-size="23.7625">A</tspan><tspan x="17.204" y="0" font-family="'NixieOne'" font-size="23.7625">P</tspan><tspan x="32.127" y="0" font-family="'NixieOne'" font-size="23.7625">PS</tspan></text>
		</g>
	</g>
</g>
<path fill="#020202" d="M1454.91,220.715c-2.059,0-4.926-1.643-4.926-3.668V57.863c0-2.023,2.865-3.67,4.926-3.67h15.982v7.759
	c0,2.026,1.672,3.669,3.736,3.669c2.063,0,3.732-1.643,3.732-3.669v-7.759h21.469v7.759c0,2.026,1.67,3.669,3.734,3.669
	c2.063,0,3.734-1.643,3.734-3.669v-7.759h18.668v7.759c0,2.026,1.67,3.669,3.734,3.669c2.063,0,3.734-1.643,3.734-3.669v-7.759
	h20.535v7.759c0,2.026,1.672,3.669,3.732,3.669c2.064,0,3.736-1.643,3.736-3.669v-7.759h17.85c2.059,0,4.922,1.646,4.922,3.67
	v27.364l0.742-0.727l7.289-8.332V59.811c0-8.092-6.701-14.677-14.936-14.677h-15.867v-8.867c0-2.027-1.67-3.671-3.736-3.671
	c-2.061,0-3.732,1.643-3.732,3.671v8.867h-20.539v-8.867c0-2.027-1.672-3.671-3.734-3.671c-2.064,0-3.734,1.643-3.734,3.671v8.867
	h-18.668v-8.867c0-2.027-1.672-3.671-3.736-3.671c-2.063,0-3.734,1.643-3.734,3.671v8.867h-21.467v-8.867
	c0-2.027-1.67-3.671-3.734-3.671s-3.734,1.643-3.734,3.671v8.867h-14c-8.234,0-14.936,6.585-14.936,14.677v154.115
	c0,8.092,6.701,14.678,14.936,14.678h120.408c8.234,0,14.938-6.586,14.938-14.678l0.008-139.707l-8.031,7.501l-0.01,132.209
	l0.006,3.117c0,2.021-2.865,3.668-4.922,3.668"/>
<path fill="#00ACEE" d="M1563.641,84.739h-93.965c-2.43,0-4.404,1.453-4.404,3.25c0,1.796,1.975,3.25,4.404,3.25h93.965
	c2.432,0,4.406-1.454,4.406-3.25C1568.047,86.192,1566.072,84.739,1563.641,84.739z"/>
<path fill="#00ACEE" d="M1563.641,110.943h-93.965c-2.43,0-4.404,1.456-4.404,3.25c0,1.798,1.975,3.251,4.404,3.251h93.965
	c2.432,0,4.406-1.453,4.406-3.251C1568.047,112.399,1566.072,110.943,1563.641,110.943z"/>
<path fill="#00ACEE" d="M1564.52,135.51h-93.965c-2.432,0-4.404,1.453-4.404,3.248c0,1.799,1.973,3.252,4.404,3.252h93.965
	c2.432,0,4.404-1.453,4.404-3.252C1568.924,136.963,1566.951,135.51,1564.52,135.51z"/>
<rect x="1452.625" y="176.705" fill="none" width="186.295" height="21.896"/>
<text transform="matrix(1 0 0 1 1452.625 192.5156)" font-family="'NixieOne'" font-size="22.586">SUBSCRIBE</text>
<path fill="#111111" d="M76.089,25.942c5.471,0,10.942,0,16.413,0c-0.011,0.162-0.032,0.325-0.032,0.487
	c-0.001,4.311-0.001,8.621-0.001,12.931c0,0.16,0,0.319,0,0.504c-0.202,0-0.353,0-0.502,0c-2.861,0-5.722,0.004-8.583-0.001
	c-1.497-0.002-2.601,0.641-3.22,2.007c-0.241,0.532-0.442,1.114-0.5,1.69c-0.101,0.998-0.094,2.007-0.1,3.013
	c-0.012,2.042-0.003,4.083-0.003,6.125c0,0.132,0,0.265,0,0.432c4.667,0,9.272,0,13.912,0c-0.041,0.148-0.067,0.256-0.099,0.363
	c-1.054,3.479-2.112,6.958-3.153,10.44c-0.099,0.33-0.248,0.414-0.579,0.412c-3.201-0.015-6.402-0.009-9.604-0.009
	c-0.147,0-0.293,0-0.478,0c0,0.208,0,0.369,0,0.529c0,12.251,0,24.501,0,36.752c0,0.14,0.005,0.276,0.008,0.415
	c-5.32,0-10.64,0-15.959,0c-0.002-0.188-0.008-0.378-0.007-0.566c0.033-12.199,0.065-24.397,0.098-36.597c0-0.171,0-0.341,0-0.513
	c-0.136-0.01-0.211-0.02-0.286-0.02c-2.798,0-5.596-0.001-8.394,0c-0.087,0-0.174,0.018-0.261,0.028c0-3.757,0-7.513,0-11.27
	c0.063,0.006,0.125,0.016,0.188,0.016c2.834,0.001,5.669,0.001,8.503,0c0.084,0,0.168-0.019,0.289-0.034c0-0.165,0-0.313,0-0.462
	c0.008-4.447,0.002-8.894,0.034-13.34c0.007-1.017,0.083-2.041,0.229-3.046c0.313-2.132,1.117-4.068,2.516-5.731
	c1.942-2.309,4.507-3.528,7.386-4.178C74.624,26.158,75.36,26.066,76.089,25.942z"/>
<path fill="#111111" d="M169.242,78.958c-6.075-0.538-10.134-3.568-12.389-9.271c2.051,0.281,3.947,0.293,5.878-0.242
	c-7.84-1.96-10.723-8.882-10.439-13.19c1.816,0.902,3.682,1.527,5.896,1.583c-3.364-2.46-5.297-5.601-5.752-9.557
	c-0.329-2.856,0.212-5.576,1.707-8.135c7.201,8.462,16.286,13.113,27.395,13.886c-0.085-0.772-0.182-1.473-0.234-2.178
	c-0.469-6.102,3.412-11.683,9.035-13.477c4.924-1.571,9.385-0.586,13.252,2.858c0.51,0.453,0.905,0.616,1.598,0.441
	c2.408-0.61,4.709-1.469,6.88-2.675c0.163-0.091,0.334-0.168,0.632-0.316c-1.027,3.105-2.904,5.393-5.473,7.184
	c2.483-0.218,4.82-0.927,7.096-1.877c0.047,0.053,0.094,0.105,0.141,0.158c-1.058,1.235-2.063,2.521-3.188,3.69
	c-0.904,0.939-1.944,1.75-2.949,2.589c-0.302,0.252-0.437,0.492-0.433,0.9c0.093,11.948-4.232,22.007-13.078,30.037
	c-4.983,4.522-10.911,7.229-17.528,8.401c-6.967,1.235-13.797,0.716-20.452-1.744c-2.438-0.901-4.76-2.049-6.95-3.51
	c3.447,0.269,6.839,0.028,10.169-0.914C163.38,82.657,166.413,81.142,169.242,78.958z"/>
<path fill="#111111" d="M280.81,29.445c0.095,1.108-0.256,1.779-1.469,2.18c-1.267,0.419-2.594,0.674-3.908,0.925
	c-1.243,0.237-2.506,0.376-3.814,0.566c0.085,0.161,0.102,0.246,0.148,0.272c2.916,1.608,4.436,4.148,4.875,7.382
	c0.479,3.535,0.533,7.055-0.477,10.528c-0.722,2.485-2.059,4.59-3.896,6.392c-0.894,0.876-1.822,1.717-2.683,2.625
	c-1.448,1.531-1.554,3.041-0.142,4.59c1.301,1.426,2.767,2.704,4.189,4.013c1.867,1.715,3.631,3.516,4.988,5.676
	c2.188,3.479,2.594,7.28,1.982,11.248c-1.025,6.666-5,10.906-11.176,13.135c-6.533,2.356-13.185,2.47-19.807,0.348
	c-3.607-1.157-6.619-3.201-8.484-6.639c-0.797-1.469-1.24-3.053-1.451-4.705c-0.028-0.23-0.092-0.457-0.139-0.687
	c0-0.991,0-1.985,0-2.978c0.043-0.155,0.109-0.309,0.129-0.467c0.295-2.508,1.221-4.746,2.894-6.646
	c2.208-2.511,5.073-3.955,8.2-4.945c3.337-1.059,6.777-1.457,10.261-1.551c0.263-0.007,0.526-0.001,0.94-0.001
	c-1.803-2.521-2.623-5.147-2.457-7.882c-2.002-0.269-3.948-0.373-5.813-0.814c-3.894-0.922-6.886-3.121-8.678-6.784
	c-1.177-2.405-1.567-4.99-1.612-7.629c-0.075-4.48,1.059-8.563,4.191-11.912c2.474-2.644,5.58-4.251,9.021-5.219
	c1.56-0.438,3.172-0.688,4.761-1.022C267.861,29.445,274.336,29.445,280.81,29.445z M261.615,74.312
	c-0.823,0.07-1.653,0.095-2.468,0.218c-3.697,0.56-6.903,2.06-9.323,5c-3.446,4.187-2.611,9.636,1.935,12.562
	c2.053,1.32,4.354,1.905,6.764,2.082c3.479,0.252,6.839-0.205,9.943-1.906c6.685-3.662,6.166-11.438,1.6-15.162
	C267.608,75.103,264.728,74.369,261.615,74.312z M251.634,44.384c0.186,4.248,1.67,8.616,5.605,11.872
	c3.253,2.691,7.32,2.112,9.736-1.341c1.19-1.7,1.813-3.608,2.082-5.649c0.439-3.349-0.396-6.449-1.784-9.457
	c-1.343-2.912-3.479-4.765-6.729-5.183c-3.076-0.396-5.576,0.121-7.521,3.693C252.115,39.986,251.733,41.803,251.634,44.384z"/>
<path fill="#111111" d="M312.146,65.033c-4.031,0-8.063,0-12.172,0c0,4.083,0,8.086,0,12.127c-2.572,0-5.067,0-7.655,0
	c0-4.021,0-8.04,0-12.128c-4.097,0-8.101,0-12.144,0c0-2.581,0-5.094,0-7.688c4.045,0,8.047,0,12.116,0c0-4.083,0-8.087,0-12.128
	c2.581,0,5.095,0,7.687,0c0,4.031,0,8.033,0,12.161c4.107,0,8.139,0,12.168,0C312.146,59.929,312.146,62.48,312.146,65.033z"/>
<path fill="#FFFFFF" d="M398.607,23.143c5.471,0,10.942,0,16.413,0c-0.011,0.162-0.032,0.325-0.032,0.487
	c-0.001,4.311-0.001,8.621-0.001,12.931c0,0.16,0,0.319,0,0.504c-0.202,0-0.353,0-0.502,0c-2.861,0-5.722,0.004-8.583-0.001
	c-1.497-0.002-2.601,0.641-3.22,2.007c-0.241,0.532-0.442,1.114-0.5,1.69c-0.101,0.998-0.094,2.007-0.1,3.013
	c-0.012,2.042-0.003,4.083-0.003,6.125c0,0.132,0,0.265,0,0.432c4.667,0,9.272,0,13.912,0c-0.041,0.148-0.067,0.256-0.099,0.363
	c-1.054,3.479-2.112,6.958-3.153,10.44c-0.099,0.33-0.248,0.414-0.579,0.412c-3.201-0.015-6.402-0.009-9.604-0.009
	c-0.147,0-0.293,0-0.478,0c0,0.208,0,0.369,0,0.529c0,12.251,0,24.501,0,36.752c0,0.14,0.005,0.276,0.008,0.415
	c-5.32,0-10.64,0-15.959,0c-0.002-0.188-0.008-0.378-0.007-0.566c0.033-12.199,0.065-24.397,0.098-36.597c0-0.171,0-0.341,0-0.513
	c-0.136-0.01-0.211-0.02-0.286-0.02c-2.798,0-5.596-0.001-8.394,0c-0.087,0-0.174,0.018-0.261,0.028c0-3.757,0-7.513,0-11.27
	c0.063,0.006,0.125,0.016,0.188,0.016c2.834,0.001,5.669,0.001,8.503,0c0.084,0,0.168-0.019,0.289-0.034c0-0.165,0-0.313,0-0.462
	c0.008-4.447,0.002-8.894,0.034-13.34c0.007-1.017,0.083-2.041,0.229-3.046c0.313-2.132,1.117-4.068,2.516-5.731
	c1.942-2.309,4.507-3.528,7.386-4.178C397.142,23.358,397.878,23.267,398.607,23.143z"/>
<path fill="#FFFFFF" d="M491.76,76.159c-6.075-0.538-10.134-3.568-12.389-9.271c2.051,0.281,3.947,0.293,5.878-0.242
	c-7.84-1.96-10.723-8.882-10.439-13.19c1.816,0.902,3.682,1.527,5.896,1.583c-3.364-2.46-5.297-5.601-5.752-9.557
	c-0.329-2.856,0.212-5.576,1.707-8.135c7.201,8.462,16.286,13.113,27.395,13.886c-0.085-0.772-0.182-1.473-0.234-2.178
	c-0.469-6.102,3.412-11.683,9.035-13.477c4.924-1.571,9.385-0.586,13.252,2.858c0.51,0.453,0.905,0.616,1.598,0.441
	c2.408-0.61,4.709-1.469,6.88-2.675c0.163-0.091,0.334-0.168,0.632-0.316c-1.027,3.105-2.904,5.393-5.473,7.184
	c2.483-0.218,4.82-0.927,7.096-1.877c0.047,0.053,0.094,0.105,0.141,0.158c-1.058,1.235-2.063,2.521-3.188,3.69
	c-0.904,0.939-1.944,1.75-2.949,2.589c-0.302,0.252-0.437,0.492-0.433,0.9c0.093,11.948-4.232,22.007-13.078,30.037
	c-4.983,4.522-10.911,7.229-17.528,8.401c-6.967,1.235-13.797,0.716-20.452-1.744c-2.438-0.901-4.76-2.049-6.95-3.51
	c3.447,0.269,6.839,0.028,10.169-0.914C485.898,79.857,488.931,78.343,491.76,76.159z"/>
<path fill="#FFFFFF" d="M603.327,26.646c0.095,1.108-0.256,1.779-1.469,2.18c-1.267,0.419-2.594,0.674-3.908,0.925
	c-1.243,0.237-2.506,0.376-3.814,0.566c0.085,0.161,0.102,0.246,0.148,0.272c2.916,1.608,4.436,4.148,4.875,7.382
	c0.479,3.535,0.533,7.055-0.477,10.528c-0.722,2.485-2.059,4.59-3.896,6.392c-0.894,0.876-1.822,1.717-2.683,2.625
	c-1.448,1.531-1.554,3.041-0.142,4.59c1.301,1.426,2.767,2.704,4.189,4.013c1.867,1.715,3.631,3.516,4.988,5.676
	c2.188,3.479,2.594,7.28,1.982,11.248c-1.025,6.666-5,10.906-11.176,13.135c-6.533,2.356-13.185,2.47-19.807,0.348
	c-3.607-1.157-6.619-3.201-8.484-6.639c-0.797-1.469-1.24-3.053-1.451-4.705c-0.028-0.23-0.092-0.457-0.139-0.687
	c0-0.991,0-1.985,0-2.978c0.043-0.155,0.109-0.309,0.129-0.467c0.295-2.508,1.221-4.746,2.894-6.646
	c2.208-2.511,5.073-3.955,8.2-4.945c3.337-1.059,6.777-1.457,10.261-1.551c0.263-0.007,0.526-0.001,0.94-0.001
	c-1.803-2.521-2.623-5.147-2.457-7.882c-2.002-0.269-3.948-0.373-5.813-0.814c-3.894-0.922-6.886-3.121-8.678-6.784
	c-1.177-2.405-1.567-4.99-1.612-7.629c-0.075-4.48,1.059-8.563,4.191-11.912c2.474-2.644,5.58-4.251,9.021-5.219
	c1.56-0.438,3.172-0.688,4.761-1.022C590.379,26.646,596.854,26.646,603.327,26.646z M584.133,71.513
	c-0.823,0.07-1.653,0.095-2.468,0.218c-3.697,0.56-6.903,2.06-9.323,5c-3.446,4.187-2.611,9.636,1.935,12.562
	c2.053,1.32,4.354,1.905,6.764,2.082c3.479,0.252,6.839-0.205,9.943-1.906c6.685-3.662,6.166-11.438,1.6-15.162
	C590.126,72.304,587.245,71.569,584.133,71.513z M574.151,41.584c0.186,4.248,1.67,8.616,5.605,11.872
	c3.253,2.691,7.32,2.112,9.736-1.341c1.19-1.7,1.813-3.608,2.082-5.649c0.439-3.349-0.396-6.449-1.784-9.457
	c-1.343-2.912-3.479-4.765-6.729-5.183c-3.076-0.396-5.576,0.121-7.521,3.693C574.633,37.187,574.251,39.003,574.151,41.584z"/>
<path fill="#FFFFFF" d="M634.663,62.233c-4.031,0-8.063,0-12.172,0c0,4.083,0,8.086,0,12.127c-2.572,0-5.067,0-7.655,0
	c0-4.021,0-8.04,0-12.128c-4.097,0-8.101,0-12.144,0c0-2.581,0-5.094,0-7.688c4.045,0,8.047,0,12.116,0c0-4.083,0-8.087,0-12.128
	c2.581,0,5.095,0,7.687,0c0,4.031,0,8.033,0,12.161c4.107,0,8.139,0,12.168,0C634.663,57.129,634.663,59.681,634.663,62.233z"/>
<polygon fill="#161616" points="1649,48 1649,63 2079.764,61.995 2057.386,90 2184.936,55.1 2057.476,20.995 2079.748,48.053 "/>
<g>
	<rect x="2259.297" y="36.648" fill="#231F20" width="68.74" height="1.835"/>
	<rect x="2259.297" y="55.427" fill="#231F20" width="68.74" height="1.836"/>
	<rect x="2259.297" y="74.509" fill="#231F20" width="68.74" height="1.838"/>
</g>
</svg>
