<?xml version="1.0" encoding="utf-8"?>
<!-- Generator: Adobe Illustrator 16.0.0, SVG Export Plug-In . SVG Version: 6.00 Build 0)  -->
<!DOCTYPE svg PUBLIC "-//W3C//DTD SVG 1.1//EN" "http://www.w3.org/Graphics/SVG/1.1/DTD/svg11.dtd">
<svg version="1.1" xmlns="http://www.w3.org/2000/svg" xmlns:xlink="http://www.w3.org/1999/xlink" x="0px" y="0px" width="1300px"
	 height="300px" viewBox="0 0 1300 300" enable-background="new 0 0 1300 300" xml:space="preserve">
<g id="Layer_2">
	<g>
		<path fill-rule="evenodd" clip-rule="evenodd" fill="#00ACEE" d="M128.003,87.264c-0.021-6.328,1.35-12.323,4.578-17.79
			c6.021-10.197,14.95-16.24,26.733-17.37c20.181-1.936,35.001,12.436,37.694,28.49c0.358,2.14,0.607,4.277,0.438,6.448
			c-0.581,0.212-1.035-0.137-1.489-0.375c-6.128-3.199-12.696-4.18-19.492-3.627c-3.716,0.302-7.307,1.329-10.696,2.953
			c-0.846,0.406-1.659,0.883-2.541,1.215c-0.202,0.054-0.404,0.056-0.608,0.013c-2.444-1.125-4.84-2.354-7.468-3.053
			c-8.86-2.36-17.377-1.528-25.561,2.631c-0.399,0.204-0.771,0.465-1.216,0.572C128.233,87.396,128.11,87.359,128.003,87.264z"/>
		<path fill-rule="evenodd" clip-rule="evenodd" fill="#EC018B" d="M197.536,87.245c7.409,4.266,12.496,10.485,15.362,18.499
			c7.442,20.809-6.335,43.213-28.363,46.042c-7.344,0.942-14.385-0.258-20.942-3.843c-0.175-0.097-0.327-0.233-0.488-0.351
			c-0.071-0.584,0.409-0.75,0.771-0.979c6.196-3.896,10.712-9.246,13.59-15.943c1.504-3.504,2.401-7.188,2.513-11.029
			c0.029-0.98,0.259-1.937,0.321-2.913c0.034-0.124,0.088-0.237,0.161-0.343c2.837-1.862,5.494-3.942,7.774-6.474
			c4.775-5.301,7.714-11.459,8.658-18.547c0.141-1.05,0.289-2.098,0.261-3.165C197.145,87.849,197.116,87.444,197.536,87.245z"/>
		<path fill-rule="evenodd" clip-rule="evenodd" fill="#FDF100" d="M162.743,147.54c-3.575,2.27-7.529,3.581-11.671,4.147
			c-7.985,1.091-15.587-0.125-22.686-4.162c-11.778-6.698-18.771-20.231-17.271-33.68c1.256-11.26,6.727-19.918,16.197-26.084
			c0.237-0.155,0.461-0.331,0.691-0.497c0.024,0.041,0.058,0.071,0.1,0.09c0.625,1.168,0.32,2.47,0.497,3.703
			c1.529,10.662,6.824,18.889,15.798,24.79c0.34,0.224,0.699,0.425,0.949,0.762c0.069,0.108,0.118,0.225,0.15,0.347
			c0.363,4.471,0.857,8.908,2.59,13.119c2.833,6.884,7.394,12.307,13.589,16.389C162.103,146.744,162.676,146.899,162.743,147.54z"
			/>
		<path fill-rule="evenodd" clip-rule="evenodd" fill="#ED1D25" d="M162.743,147.54c-3.766-2.338-7.146-5.122-9.885-8.635
			c-5.038-6.462-7.574-13.777-7.476-21.989c0.578-0.233,1.03,0.123,1.487,0.356c4.538,2.298,9.308,3.6,14.424,3.792
			c5.915,0.223,11.495-0.901,16.801-3.495c0.747-0.366,1.424-0.995,2.365-0.831c0.013,4.891-0.805,9.632-2.73,14.137
			c-1.761,4.118-4.177,7.84-7.378,10.988c-1.942,1.91-4.001,3.707-6.396,5.063c-0.313,0.176-0.686,0.289-0.849,0.664
			C162.984,147.575,162.863,147.559,162.743,147.54z"/>
		<path fill-rule="evenodd" clip-rule="evenodd" fill="#2E3191" d="M197.536,87.245c-0.151,8.11-2.808,15.315-7.929,21.586
			c-2.542,3.111-5.511,5.764-9.055,7.72c-0.501-0.349-0.542-0.891-0.556-1.42c-0.159-6.499-2.486-12.282-6.053-17.576
			c-2.552-3.788-5.836-6.904-9.736-9.339c-0.45-0.282-1.116-0.413-1.087-1.164c3.608-2.282,7.599-3.552,11.777-4.138
			c7.596-1.064,14.858,0.069,21.668,3.72c0.284,0.153,0.587,0.273,0.88,0.409C197.49,87.103,197.52,87.17,197.536,87.245z"/>
		<path fill-rule="evenodd" clip-rule="evenodd" fill="#37363A" d="M163.119,87.052c1.975,1.418,3.997,2.759,5.828,4.385
			c2.994,2.657,5.374,5.77,7.269,9.262c2.479,4.566,4.023,9.408,4.114,14.654c0.006,0.4,0.146,0.798,0.222,1.198
			c-0.017,0.069-0.047,0.132-0.092,0.188c-4.162,2.242-8.509,3.881-13.25,4.45c-7.045,0.844-13.727-0.246-20.073-3.412
			c-0.583-0.291-1.169-0.573-1.754-0.861c-0.048-0.065-0.086-0.134-0.113-0.21c-0.375-1.164-0.163-2.36-0.016-3.501
			c0.957-7.436,3.896-13.976,8.968-19.545c2.041-2.241,4.31-4.191,6.844-5.839c0.508-0.331,1.003-0.708,1.644-0.762
			C162.846,87.057,162.982,87.054,163.119,87.052z"/>
		<path fill-rule="evenodd" clip-rule="evenodd" fill="#00A650" d="M162.709,87.059c-2.167,1.516-4.359,2.983-6.304,4.808
			c-4.067,3.813-7.005,8.339-8.973,13.536c-1.381,3.647-1.878,7.452-2.163,11.303c-8.688-5.129-14.106-12.658-16.413-22.444
			c-0.533-2.263-0.88-4.564-0.753-6.908c3.271-2.171,6.917-3.444,10.726-4.166c7.961-1.508,15.617-0.539,22.853,3.231
			C162.039,86.605,162.368,86.845,162.709,87.059z"/>
	</g>
	<g>
		<path display="none" fill-rule="evenodd" clip-rule="evenodd" fill="#FEFEFE" d="M377.864,103.771
			c0-17.403,0.009-34.805-0.024-52.207c-0.002-1.009,0.136-1.301,1.253-1.3c34.923,0.041,69.847,0.041,104.77,0.001
			c1.176-0.001,1.333,0.343,1.333,1.395c-0.027,34.863-0.027,69.728,0.002,104.59c0,1.068-0.181,1.389-1.342,1.387
			c-34.924-0.037-69.846-0.038-104.77,0.004c-1.135,0.001-1.247-0.315-1.244-1.306C377.873,138.812,377.864,121.291,377.864,103.771
			z"/>
		<path fill-rule="evenodd" clip-rule="evenodd" fill="#FE0000" d="M399.33,88.924c-2.502-17.007,8.945-33.092,25.425-36.965
			c18.274-4.295,37.005,8.004,40.171,26.543c0.626,3.664,0.762,7.297,0.125,10.958c-0.813,0.315-1.501-0.128-2.219-0.372
			c-9.303-3.155-18.329-2.565-27.077,1.964c-1.106,0.573-2.033,1.453-3.244,1.838c-0.198,0.034-0.392,0.018-0.583-0.041
			c-4.368-2.86-9.031-4.961-14.254-5.717c-5.51-0.796-10.881-0.328-16.139,1.497C400.826,88.876,400.135,89.356,399.33,88.924z"/>
		<path fill-rule="evenodd" clip-rule="evenodd" fill="#0000FE" d="M465.262,89.645c13.077,5.873,20.936,19.553,19.396,33.808
			c-1.796,16.636-14.846,27.842-28.744,29.583c-8.096,1.014-15.559-0.655-22.448-4.977c-0.544-0.342-1.162-0.607-1.499-1.213
			c0.113-0.812,0.824-1.108,1.352-1.555c7.741-6.546,11.949-14.809,12.173-25.013c0.038-1.772-0.07-3.541-0.086-5.313
			c0.287-0.733,0.972-0.994,1.595-1.325c9.034-4.796,14.803-12.138,17.248-22.085C464.42,90.853,464.303,89.95,465.262,89.645z"/>
		<path fill-rule="evenodd" clip-rule="evenodd" fill="#00FE00" d="M431.637,146.854c-3.976,3.218-8.636,4.918-13.59,5.674
			c-18.285,2.792-34.678-8.769-38.229-26.834c-2.934-14.928,5.561-30.94,19.379-36.527c0.621,0.298,0.719,0.898,0.844,1.477
			c2.259,10.514,8.215,18.194,17.73,23.148c0.316,0.164,0.628,0.335,0.865,0.615c0.102,0.157,0.17,0.327,0.208,0.509
			c-0.617,6.05-0.206,11.966,2.196,17.65c2.098,4.962,5.176,9.188,9.254,12.698C430.826,145.722,431.494,146.066,431.637,146.854z"
			/>
		<path fill-rule="evenodd" clip-rule="evenodd" fill="#00FEFE" d="M431.637,146.854c-9.762-7.595-14.162-17.598-13.401-29.904
			c0.042-0.704,0.239-1.396,0.364-2.091c0.631-0.506,1.27-0.163,1.851,0.054c7.841,2.938,15.673,2.944,23.511,0.003
			c0.389-0.146,0.794-0.25,1.217-0.259c0.208,0.001,0.387,0.076,0.534,0.223c1.345,13.205-3.06,23.936-13.745,31.966
			c-0.001,0-0.164,0.054-0.164,0.054L431.637,146.854z"/>
		<path fill-rule="evenodd" clip-rule="evenodd" fill="#FEFE00" d="M418.451,114.522c-10.256-4.708-16.338-12.744-18.85-23.628
			c-0.133-0.577-0.27-1.152-0.404-1.728c0.016-0.096,0.061-0.177,0.133-0.243c5.09-2.009,10.354-3.015,15.828-2.557
			c6.204,0.519,11.924,2.422,16.915,6.256c0.274,0.801-0.445,1.024-0.857,1.353c-6.206,4.96-10.218,11.285-11.931,19.054
			C419.158,113.609,419.051,114.204,418.451,114.522z"/>
		<path fill-rule="evenodd" clip-rule="evenodd" fill="#FE00FE" d="M465.262,89.645c-0.896,2.993-1.56,6.05-2.941,8.896
			c-3.318,6.836-8.313,12.005-15.069,15.477c-0.522,0.27-1.026,0.576-1.539,0.862c-0.056-0.048-0.115-0.097-0.175-0.144
			c-0.494-0.566-0.549-1.293-0.695-1.979c-1.599-7.509-5.453-13.647-11.265-18.603c-0.489-0.417-1.087-0.752-1.104-1.512
			c9.587-6.577,19.877-7.607,30.765-3.893c0.613,0.209,1.209,0.472,1.813,0.711C465.176,89.468,465.246,89.53,465.262,89.645z"/>
		<path fill-rule="evenodd" clip-rule="evenodd" fill="#FEFEFE" d="M432.474,92.642c3.954,3.25,7.405,6.928,9.74,11.541
			c1.687,3.333,2.988,6.792,3.323,10.552c-7.947,3.595-16.039,3.781-24.253,1.011c-0.894-0.3-1.79-0.593-2.685-0.889
			c-0.05-0.111-0.1-0.224-0.148-0.335c1.178-5.63,3.311-10.822,6.925-15.362c1.962-2.465,4.37-4.457,6.697-6.538
			C432.207,92.629,432.34,92.636,432.474,92.642z"/>
	</g>
	<g>
		<path fill="#2DDFE8" d="M662,75.578c0,3.547-2.875,6.422-6.422,6.422h-23.156c-3.547,0-6.422-2.875-6.422-6.422V53.422
			c0-3.547,2.875-6.422,6.422-6.422h23.156c3.547,0,6.422,2.875,6.422,6.422V75.578z"/>
		<path fill="#EACA2A" d="M706,119.578c0,3.547-2.875,6.422-6.422,6.422h-23.156c-3.547,0-6.422-2.875-6.422-6.422V97.422
			c0-3.547,2.875-6.422,6.422-6.422h23.156c3.547,0,6.422,2.875,6.422,6.422V119.578z"/>
		<path fill="#E8922D" d="M750,119.578c0,3.547-2.875,6.422-6.421,6.422h-23.158c-3.546,0-6.421-2.875-6.421-6.422V97.422
			c0-3.547,2.875-6.422,6.421-6.422h23.158c3.546,0,6.421,2.875,6.421,6.422V119.578z"/>
		<path fill="#A9EA2A" d="M750,75.579c0,3.546-2.875,6.421-6.421,6.421h-23.158c-3.546,0-6.421-2.875-6.421-6.421V53.421
			c0-3.546,2.875-6.421,6.421-6.421h23.158c3.546,0,6.421,2.875,6.421,6.421V75.579z"/>
		<path fill="#2AEA77" d="M706,75.579c0,3.546-2.875,6.421-6.422,6.421h-23.156c-3.547,0-6.422-2.875-6.422-6.421V53.421
			c0-3.546,2.875-6.421,6.422-6.421h23.156c3.547,0,6.422,2.875,6.422,6.421V75.579z"/>
		<path fill="#EDED29" d="M662,119.578c0,3.547-2.875,6.422-6.422,6.422h-23.156c-3.547,0-6.422-2.875-6.422-6.422V97.422
			c0-3.547,2.875-6.422,6.422-6.422h23.156c3.547,0,6.422,2.875,6.422,6.422V119.578z"/>
		<path fill="#EA772A" d="M662,162.579c0,3.546-2.875,6.421-6.422,6.421h-23.156c-3.547,0-6.422-2.875-6.422-6.421v-22.158
			c0-3.546,2.875-6.421,6.422-6.421h23.156c3.547,0,6.422,2.875,6.422,6.421V162.579z"/>
		<path fill="#8AF9F9" d="M656,72.456c0,2.51-2.035,4.544-4.545,4.544h-15.91c-2.51,0-4.545-2.035-4.545-4.544V56.544
			c0-2.51,2.035-4.544,4.545-4.544h15.91c2.51,0,4.545,2.035,4.545,4.544V72.456z"/>
		<path fill="#73FFAC" d="M701,72.456c0,2.51-2.035,4.544-4.545,4.544h-15.91c-2.51,0-4.545-2.034-4.545-4.544V56.544
			c0-2.51,2.035-4.544,4.545-4.544h15.91c2.51,0,4.545,2.034,4.545,4.544V72.456z"/>
		<path fill="#D2F973" d="M744,72.809c0,2.314-2.083,4.191-4.653,4.191h-15.693c-2.57,0-4.653-1.876-4.653-4.191V56.191
			c0-2.314,2.083-4.191,4.653-4.191h15.693c2.57,0,4.653,1.876,4.653,4.191V72.809z"/>
		<path fill="#FCF870" d="M658,116.622c0,2.509-2.378,4.378-4.889,4.378h-16.358c-2.51,0-4.753-1.869-4.753-4.378v-15.634
			c0-2.509,2.243-4.987,4.753-4.987h16.358c2.511,0,4.889,2.478,4.889,4.987V116.622z"/>
		<path fill="#FFE473" d="M701,116.456c0,2.51-2.035,4.544-4.545,4.544h-15.91c-2.51,0-4.545-2.034-4.545-4.544v-15.912
			c0-2.51,2.035-4.544,4.545-4.544h15.91c2.51,0,4.545,2.034,4.545,4.544V116.456z"/>
		<path fill="#F9A450" d="M745,116.52c0,2.509-2.232,4.48-4.743,4.48h-16.325c-2.511,0-4.932-1.971-4.932-4.48v-15.749
			c0-2.51,2.421-4.771,4.932-4.771h16.325c2.511,0,4.743,2.261,4.743,4.771V116.52z"/>
		<path fill="none" d="M656,159.456c0,2.51-2.035,4.544-4.545,4.544h-15.91c-2.51,0-4.545-2.034-4.545-4.544v-15.912
			c0-2.51,2.035-4.544,4.545-4.544h15.91c2.51,0,4.545,2.034,4.545,4.544V159.456z"/>
	</g>
	<g>
		<path fill="#00ACEE" d="M1061.369,57.051H944.645c-3.018,0-5.471,1.805-5.471,4.037c0,2.231,2.453,4.037,5.471,4.037h116.725
			c3.021,0,5.474-1.806,5.474-4.037C1066.843,58.856,1064.39,57.051,1061.369,57.051z"/>
		<path fill="#00ACEE" d="M1061.369,89.602H944.645c-3.018,0-5.471,1.809-5.471,4.038c0,2.233,2.453,4.038,5.471,4.038h116.725
			c3.021,0,5.474-1.805,5.474-4.038C1066.843,91.411,1064.39,89.602,1061.369,89.602z"/>
		<path fill="#00ACEE" d="M1062.461,120.119H945.736c-3.021,0-5.471,1.805-5.471,4.035c0,2.234,2.45,4.04,5.471,4.04h116.725
			c3.021,0,5.471-1.805,5.471-4.04C1067.932,121.924,1065.481,120.119,1062.461,120.119z"/>
	</g>
	<rect x="624" y="182.5" fill="none" width="146" height="61"/>
	<text transform="matrix(1 0 0 1 624 215.3994)" font-family="'NixieOne'" font-size="47">APPS</text>
	<rect x="816.406" y="182" fill="none" width="400" height="62"/>
	<text transform="matrix(1 0 0 1 816.4063 214.8994)" font-family="'NixieOne'" font-size="47">SUBSCRIPTIONS</text>
</g>
<g id="Layer_3">
	<rect x="91" y="180" fill="none" width="158" height="45"/>
	<text transform="matrix(1 0 0 1 91 212.8994)" font-family="'NixieOne'" font-size="47">PRINT</text>
	<rect x="377" y="180" fill="none" width="116" height="43"/>
	<text transform="matrix(1 0 0 1 377 212.8994)" font-family="'NixieOne'" font-size="47">WEB</text>
</g>
</svg>
