<?xml version="1.0" encoding="utf-8"?>
<!-- Generator: Adobe Illustrator 17.0.0, SVG Export Plug-In . SVG Version: 6.00 Build 0)  -->
<!DOCTYPE svg PUBLIC "-//W3C//DTD SVG 1.1//EN" "http://www.w3.org/Graphics/SVG/1.1/DTD/svg11.dtd">
<svg version="1.1" id="Layer_1" xmlns="http://www.w3.org/2000/svg" xmlns:xlink="http://www.w3.org/1999/xlink" x="0px" y="0px"
	 width="100px" height="100px" viewBox="0 0 100 100" enable-background="new 0 0 100 100" xml:space="preserve">
<path d="M62.925,93.344c-1.733-1.275-1.918-3.189-1.918-3.189L60.357,86H39.643l-0.652,4.152c0,0-0.181,1.916-1.914,3.191
	c-1.732,1.274-3.099,2.368-1.732,2.553c1.317,0.178,13.74,0.016,14.656,0c0.918,0.016,13.338,0.178,14.655,0
	C66.021,95.713,64.654,94.621,62.925,93.344z"/>
<g>
	<path d="M26.667,60.152c5.534-0.043,6.223-1.377,8.027-6.932c3.327-8.769,18.309,2.295,9.024,6.135
		C34.433,63.197,21.133,60.195,26.667,60.152z"/>
	<path d="M83.411,2.37c-2.687-2.164-7.134-1.098-9.937,2.38L45.083,45.086c-2.803,3.477-2.789,2.813-0.104,4.975
		c2.685,2.164,2.038,2.32,4.841-1.158l33.377-36.317C85.999,9.106,86.096,4.533,83.411,2.37z M76.111,7.198
		c0,0-0.416-0.483-1.799-1.589c2.074-3.387,6.15-2.766,6.15-2.766C76.596,5.125,76.111,7.198,76.111,7.198z"/>
</g>
<path d="M96.001,16H83.516l-5.514,6h16v48h-88V22h51.191l4.226-6H4.001c-2.209,0-4,1.791-4,4v58c0,2.209,1.791,4,4,4h92
	c2.209,0,4-1.791,4-4V20C100.001,17.791,98.21,16,96.001,16z"/>
<path d="M36.347,43.667"/>
<path d="M29.347,49.639"/>
<path d="M84.167,37.513c0,0-3.924-0.11-7.846,1.853c-1.199,0.545-2.506,1.417-3.596,2.506c-1.762,1.762-4.499,5.006-6.655,7.628
	h-4.787l-2.179,3.269l3.696,0.999c0.01,0.132,0.046,0.318,0.147,0.571l-0.573,1.262c0,0-0.218,0.436,1.417,2.179
	c1.744,1.745,2.288,1.526,2.288,1.526l1.355-0.616c0.203,0.063,0.354,0.085,0.452,0.085l1.027,3.8l3.269-2.179v-4.934
	c2.64-2.135,5.88-4.817,7.628-6.508c1.09-1.09,1.961-2.397,2.614-3.596C84.276,41.436,84.167,37.513,84.167,37.513z M76.539,47.321
	c-1.2,0-2.179-0.981-2.179-2.179c0-1.2,0.98-2.179,2.179-2.179c1.199,0,2.179,0.98,2.179,2.179
	C78.719,46.34,77.738,47.321,76.539,47.321z M65.097,60.397c0.218,0.109,0.327,0.218,0.545,0.327
	c-0.218,0.218-0.436,0.545-0.655,0.763c-2.506,2.506-6.973,2.179-6.973,2.179s-0.327-4.469,2.179-6.974
	c0.218-0.218,0.545-0.435,0.763-0.654c0.109,0.218,0.217,0.327,0.327,0.545c-1.635,2.069-1.417,5.231-1.417,5.231
	S63.027,62.032,65.097,60.397z"/>
<g>
	<polygon fill="#EF7D1A" points="73.603,49.26 73.618,49.395 72.692,49.262 	"/>
	<polygon fill="#F3963A" points="69.153,50.527 71.321,49.293 70.718,51.211 	"/>
	<polygon fill="#F5A352" points="72.669,49.323 71.319,49.295 70.659,51.253 	"/>
	<polygon fill="#F7AF69" points="73.686,49.4 72.706,49.261 70.713,51.188 	"/>
	<polygon fill="#F8BC80" points="74.188,48.029 72.692,49.262 73.786,49.286 	"/>
	<polygon fill="#F3963A" points="72.877,50.171 72.601,51.88 71.22,51.392 	"/>
	<polygon fill="#EF7D1A" points="68.856,53.021 71.266,51.405 70.669,51.146 	"/>
	<polygon fill="#F7AF69" points="68.856,53.021 69.161,50.515 70.69,51.157 	"/>
	<polygon fill="#F7AF69" points="71.309,51.345 72.601,51.88 68.852,53.042 	"/>
	<polygon fill="#F18C2A" points="72.669,49.323 72.618,49.322 70.744,51.164 	"/>
	<polygon fill="#F0861F" points="71.401,49.3 71.319,49.295 70.677,51.202 	"/>
	<polygon fill="#F0861F" points="69.236,50.484 70.695,51.163 69.144,50.526 	"/>
	<polygon fill="#F0861F" points="72.601,51.88 71.22,51.392 71.293,51.338 	"/>
	<polygon fill="#F0861F" points="72.877,50.17 72.39,50.531 72.825,50.528 	"/>
	<polygon fill="#FACB99" points="73.513,50.523 72.825,50.528 72.877,50.17 	"/>
</g>
<g>
	<polygon fill="#EF7D1A" points="51.013,74.143 51.122,74.224 50.392,74.808 	"/>
	<polygon fill="#F3963A" points="48.895,78.256 49.478,75.83 50.465,77.582 	"/>
	<polygon fill="#F5A352" points="50.421,74.867 49.478,75.833 50.455,77.654 	"/>
	<polygon fill="#F7AF69" points="51.173,74.178 50.402,74.797 50.445,77.569 	"/>
	<polygon fill="#F8BC80" points="50.515,72.874 50.392,74.808 51.158,74.027 	"/>
	<polygon fill="#F3963A" points="51.182,75.295 52.24,76.664 50.94,77.339 	"/>
	<polygon fill="#EF7D1A" points="50.513,80.178 50.981,77.314 50.384,77.573 	"/>
	<polygon fill="#F7AF69" points="50.513,80.178 48.893,78.242 50.407,77.565 	"/>
	<polygon fill="#F7AF69" points="50.966,77.242 52.24,76.664 50.525,80.195 	"/>
	<polygon fill="#F18C2A" points="50.421,74.867 50.385,74.903 50.448,77.531 	"/>
	<polygon fill="#F0861F" points="49.538,75.776 49.478,75.833 50.43,77.605 	"/>
	<polygon fill="#F0861F" points="48.921,78.166 50.414,77.566 48.888,78.262 	"/>
	<polygon fill="#F0861F" points="52.24,76.664 50.94,77.339 50.95,77.248 	"/>
	<polygon fill="#F0861F" points="51.181,75.295 51.112,75.897 51.407,75.577 	"/>
	<polygon fill="#FACB99" points="51.873,75.071 51.407,75.577 51.181,75.295 	"/>
</g>
</svg>
