<?xml version="1.0" encoding="utf-8"?>
<!-- Generator: Adobe Illustrator 17.0.0, SVG Export Plug-In . SVG Version: 6.00 Build 0)  -->
<!DOCTYPE svg PUBLIC "-//W3C//DTD SVG 1.1//EN" "http://www.w3.org/Graphics/SVG/1.1/DTD/svg11.dtd">
<svg version="1.1" id="Capa_1" xmlns="http://www.w3.org/2000/svg" xmlns:xlink="http://www.w3.org/1999/xlink" x="0px" y="0px"
	 width="100px" height="100px" viewBox="0 0 100 100" enable-background="new 0 0 100 100" xml:space="preserve">
<g>
	<g>
		<g>
			<path d="M57.75,65.792c-0.037-1.07-0.042-2.071,0.024-3.088c0.001-2.418,0.055-4.832,0.268-7.246
				c0.012-0.135,0.045-0.262,0.065-0.394c0.004-0.088-0.008-0.176,0-0.263v-0.206c0.008,0.014,0.013,0.03,0.02,0.045
				c0.216-1.784,1.262-3.449,3.149-4.06c0.223-0.148,0.455-0.287,0.718-0.391c-2.171-2.934-5.087-4.761-6.642-5.715
				c-0.094-0.058-0.195-0.096-0.293-0.141c-0.8-0.526-1.697-0.912-2.61-1.137l-1.821,1.832l-1.765-1.852
				c-0.006,0.002-0.012,0.002-0.018,0.004c-0.875,0.209-1.733,0.571-2.511,1.06c-0.194,0.059-0.386,0.135-0.569,0.239
				c-1.132,0.635-2.208,0.76-3.385,0.393c-3.902-1.216-7.536-7.169-8.606-9.358c-0.285-0.588-0.752-1.022-1.295-1.292L31.7,33.963
				c-0.565-0.097-1.163-0.032-1.719,0.239c-1.409,0.684-1.996,2.382-1.312,3.79c0.166,0.342,0.786,1.576,1.789,3.149l0.669,1.011
				c2.094,3.048,5.402,6.833,9.549,8.131c0.822,0.257,1.648,0.4,2.472,0.443v14.949c0,0.772,0.152,1.491,0.417,2.151
				c-0.019,0.142-0.043,0.281-0.043,0.428l0.002,27.165c0.001,1.852,1.501,3.353,3.353,3.353c1.852-0.001,3.353-1.501,3.353-3.353
				l-0.002-23.314c0.133,0.006,0.265,0.016,0.399,0.016c0.027,0,0.052-0.003,0.079-0.003l-0.001,23.3
				c0,1.851,1.501,3.353,3.352,3.353c0.001,0,0.001,0,0.001,0c1.851,0,3.352-1.501,3.352-3.353l0.001-26.65
				c0.028,0.026,0.061,0.047,0.093,0.07c-0.016-0.542,0.041-1.087,0.177-1.609c0.008-0.244,0.035-0.485,0.077-0.723
				c-0.007-0.162,0.008-0.323,0.014-0.485C57.765,65.945,57.753,65.872,57.75,65.792z M50.644,59.49h-0.034l-1.763-2.412
				L50.611,45.3h0.034l1.763,11.779L50.644,59.49z"/>
		</g>
		<g>
			<circle cx="50.627" cy="35.465" r="7.307"/>
		</g>
	</g>
	<g>
		<polygon fill="#EF7D1A" points="54.539,49.204 54.613,49.251 54.171,49.664 		"/>
		<polygon fill="#F3963A" points="53.375,51.963 53.631,50.369 54.354,51.45 		"/>
		<polygon fill="#F5A352" points="54.192,49.701 53.631,50.37 54.351,51.497 		"/>
		<polygon fill="#F7AF69" points="54.643,49.219 54.176,49.657 54.341,51.443 		"/>
		<polygon fill="#F8BC80" points="54.155,48.41 54.171,49.664 54.626,49.122 		"/>
		<polygon fill="#F3963A" points="54.704,49.939 55.455,50.771 54.649,51.27 		"/>
		<polygon fill="#EF7D1A" points="54.513,53.123 54.674,51.252 54.301,51.449 		"/>
		<polygon fill="#F7AF69" points="54.513,53.123 53.372,51.953 54.316,51.442 		"/>
		<polygon fill="#F7AF69" points="54.661,51.206 55.455,50.771 54.521,53.133 		"/>
		<polygon fill="#F18C2A" points="54.192,49.701 54.171,49.726 54.341,51.418 		"/>
		<polygon fill="#F0861F" points="53.667,50.331 53.631,50.37 54.333,51.467 		"/>
		<polygon fill="#F0861F" points="53.387,51.903 54.321,51.442 53.37,51.966 		"/>
		<polygon fill="#F0861F" points="55.455,50.771 54.649,51.27 54.651,51.211 		"/>
		<polygon fill="#F0861F" points="54.704,49.939 54.689,50.331 54.863,50.11 		"/>
		<polygon fill="#FACB99" points="55.139,49.761 54.863,50.11 54.704,49.939 		"/>
	</g>
</g>
<path d="M72.055,35.505c-0.536-0.309-1.127-0.415-1.698-0.358l-0.794,0.204c-0.56,0.231-1.057,0.631-1.382,1.198
	c-1.22,2.108-5.261,7.794-9.238,8.735c-1.2,0.284-2.265,0.085-3.35-0.628c-0.176-0.117-0.362-0.206-0.551-0.279l1.682,21.607
	l1.043-14.913c0.825,0.014,1.658-0.071,2.497-0.27c0.41-0.098,0.812-0.226,1.209-0.368c0.308-0.172,0.646-0.309,1.013-0.409
	c3.251-1.491,5.985-4.297,7.871-6.668l0.738-0.962c1.111-1.499,1.815-2.686,2.004-3.016C73.881,38.02,73.414,36.285,72.055,35.505z"
	/>
<path d="M17.58,24.291l-0.79-2.145l2.147-0.793l0.791,2.146l-2.144,0.791l0.907,2.455l-2.885,0.814l-0.881-2.384L17.58,24.291z
	 M21.427,28.097l-0.792-2.143l-2.146,0.794l0.792,2.143L21.427,28.097z M6.338,27.467c0,0-0.605-1.154,0.067-1.011
	c0.674,0.143,2.43,0.645,4.659,0.222c0,0,0.249-0.014,0.592-0.14c0.801-0.296,1.814-1.064,2.084-3.044
	c0.014-0.097,0.361-2.386,2.796-3.286c1.34-0.497,3.055-0.461,5.093,0.108l0.021,0.005l-0.246-0.662
	c-0.266,0.024-0.523-0.118-0.62-0.379c-0.116-0.313,0.044-0.661,0.355-0.773l1.138-0.422c0.312-0.115,0.657,0.043,0.773,0.357
	c0.102,0.276-0.02,0.572-0.264,0.715l9.04,24.49l-1.38,0.506l-5.076-13.751l-0.557-0.271c-0.025-0.014-2.311-1.095-4.458-0.303
	c-1.159,0.427-2.079,1.325-2.719,2.634c-0.03,0.092-0.764,2.307-3.103,3.172c-1.081,0.4-3.016,0.561-4.931-0.444l-0.498-0.117
	L6.338,27.467z M6.703,26.957l0.401,1.087l0.939-0.235l-0.205-0.555C7.402,27.201,6.976,27.011,6.703,26.957z M24.478,29.433
	l-0.106-0.292l-0.386,0.142C24.168,29.333,24.34,29.386,24.478,29.433z M17.529,31.589l-0.44-0.012l0.176,0.478
	C17.346,31.894,17.437,31.738,17.529,31.589z M17.059,31.502l-0.655-1.775l-2.016,1.135l-0.791-2.142l2.007-1.16l0.8,2.166
	l2.874-0.836l0.27,0.732c0.201-0.105,0.405-0.205,0.62-0.286c0.54-0.198,1.08-0.285,1.598-0.31l-0.341-0.929l2.267-0.837
	l-0.776-2.149l-2.284,0.842l-0.905-2.455l2.301-0.85l-0.673-1.861c-0.184-0.049-0.36-0.09-0.538-0.131l-1.881,0.696l-0.356-0.96
	c-0.69,0.006-1.314,0.104-1.864,0.307c-0.141,0.052-0.274,0.109-0.396,0.17l0.468,1.274l-2.385,0.88
	c-0.108,0.303-0.141,0.513-0.145,0.54c-0.012,0.083-0.027,0.16-0.039,0.241l0.503,1.371l-1.36,0.716
	c-0.187,0.245-0.388,0.443-0.588,0.603l0.82,2.225l-2.498,0.751l0.79,2.145l2.497-0.755l0.691,1.875L17.059,31.502z M10.763,35.176
	l-0.402-1.088l2.218-0.594l0.702,1.903c0.374-0.046,0.732-0.129,1.068-0.253c0.528-0.195,0.965-0.472,1.327-0.778l-0.563-1.527
	l-2.536,0.655l-0.691-1.875l-2.206,0.62l-0.794-2.145l2.209-0.621l-0.798-2.157c-0.343,0.028-0.682,0.043-1.01,0.038l-1.242,0.459
	l0.844,2.279l-1.007,0.09l0.837,2.298l0.961-0.242l0.681,1.85l-0.995,0.171l0.021,0.056L10.763,35.176z"/>
<path d="M88.925,26.652l-1.045,2.317l-2.821-1.014l1.076-2.386l-2.083-0.939l0.939-2.086l2.086,0.94l-0.938,2.085L88.925,26.652z
	 M84.121,30.04l0.94-2.082l-2.085-0.941l-0.94,2.082L84.121,30.04z M93.842,36.919l-0.505,0.082c-1.98,0.869-3.899,0.573-4.95,0.099
	c-2.273-1.026-2.851-3.287-2.875-3.381c-0.547-1.351-1.402-2.31-2.529-2.817c-2.086-0.94-4.442-0.021-4.468-0.009l-0.574,0.231
	l-6.023,13.364l-1.341-0.601l10.726-23.8c-0.234-0.16-0.334-0.464-0.214-0.732c0.137-0.304,0.492-0.438,0.796-0.302l1.105,0.5
	c0.302,0.134,0.437,0.491,0.3,0.796c-0.115,0.253-0.381,0.377-0.645,0.334l-0.291,0.643l0.021-0.003
	c2.073-0.426,3.786-0.342,5.088,0.247c2.366,1.068,2.553,3.375,2.56,3.473c0.131,1.993,1.088,2.831,1.866,3.182
	c0.334,0.15,0.581,0.181,0.581,0.181c2.193,0.577,3.981,0.199,4.663,0.104c0.68-0.096-0.004,1.013-0.004,1.013L93.842,36.919z
	 M95.65,29.206l-0.243,0.539l0.92,0.3l0.476-1.057C96.527,29.024,96.089,29.183,95.65,29.206z M79.4,30.103l-0.376-0.168
	l-0.126,0.284C79.04,30.181,79.215,30.14,79.4,30.103z M85.911,33.338l0.209-0.464l-0.44-0.019
	C85.761,33.01,85.842,33.171,85.911,33.338z M88.046,34.172l0.821-1.822l2.438,0.927l0.938-2.085l-2.439-0.923l0.973-2.162
	c-0.189-0.174-0.375-0.386-0.545-0.643l-1.307-0.809l0.598-1.333c-0.007-0.082-0.016-0.16-0.022-0.243
	c-0.002-0.027-0.02-0.24-0.107-0.549l-2.318-1.044l0.556-1.238c-0.117-0.07-0.246-0.136-0.383-0.198
	c-0.534-0.241-1.15-0.382-1.838-0.437l-0.423,0.933l-1.828-0.826c-0.18,0.028-0.358,0.057-0.546,0.093l-0.801,1.809l2.236,1.008
	l-1.074,2.386l-2.22-1l-0.924,2.09l2.203,0.993l-0.405,0.903c0.515,0.06,1.048,0.185,1.572,0.42c0.209,0.096,0.405,0.21,0.599,0.329
	l0.321-0.712l2.809,1.035l0.949-2.105l1.922,1.297l-0.938,2.081l-1.932-1.273L86.155,32.8L88.046,34.172z M93.612,36.141
	l0.024-0.054l-0.98-0.24l0.808-1.798l0.942,0.309l0.995-2.234l-0.998-0.16l1.001-2.215l-1.207-0.544
	c-0.328-0.018-0.664-0.056-1.005-0.108l-0.947,2.096l2.161,0.774l-0.942,2.084l-2.158-0.772L90.486,35.1l-2.484-0.83l-0.668,1.484
	c0.34,0.331,0.756,0.637,1.27,0.868c0.327,0.147,0.678,0.255,1.048,0.327l0.833-1.849l2.171,0.747l-0.477,1.057L93.612,36.141z"/>
<path d="M68.848,7.166c0,0-1.777-0.05-3.552,0.839c-0.543,0.247-1.135,0.641-1.628,1.135c-0.798,0.798-2.037,2.267-3.013,3.454
	h-2.167l-0.987,1.48l1.674,0.452c0.004,0.06,0.021,0.144,0.067,0.259l-0.26,0.571c0,0-0.099,0.197,0.641,0.987
	c0.789,0.79,1.036,0.691,1.036,0.691l0.613-0.279c0.092,0.029,0.16,0.038,0.205,0.038l0.465,1.72l1.48-0.987v-2.234
	c1.195-0.967,2.662-2.181,3.454-2.947c0.493-0.493,0.888-1.085,1.184-1.628C68.897,8.942,68.848,7.166,68.848,7.166z M65.394,11.607
	c-0.543,0-0.987-0.444-0.987-0.987c0-0.543,0.444-0.987,0.987-0.987c0.543,0,0.987,0.444,0.987,0.987
	C66.381,11.163,65.937,11.607,65.394,11.607z M60.214,17.527c0.099,0.049,0.148,0.099,0.247,0.148
	c-0.099,0.099-0.197,0.247-0.297,0.345c-1.135,1.135-3.157,0.987-3.157,0.987s-0.148-2.023,0.987-3.158
	c0.099-0.099,0.247-0.197,0.345-0.296c0.049,0.099,0.098,0.148,0.148,0.247c-0.74,0.937-0.641,2.368-0.641,2.368
	S59.276,18.267,60.214,17.527z"/>
<g>
	<polygon fill="#EF7D1A" points="63.711,12.228 63.719,12.294 63.262,12.229 	"/>
	<polygon fill="#F3963A" points="61.516,12.853 62.586,12.244 62.288,13.191 	"/>
	<polygon fill="#F5A352" points="63.251,12.259 62.585,12.245 62.259,13.211 	"/>
	<polygon fill="#F7AF69" points="63.753,12.297 63.269,12.229 62.286,13.179 	"/>
	<polygon fill="#F8BC80" points="64,11.62 63.262,12.229 63.802,12.241 	"/>
	<polygon fill="#F3963A" points="63.353,12.677 63.218,13.52 62.536,13.28 	"/>
	<polygon fill="#EF7D1A" points="61.37,14.084 62.559,13.286 62.264,13.159 	"/>
	<polygon fill="#F7AF69" points="61.37,14.084 61.52,12.847 62.275,13.164 	"/>
	<polygon fill="#F7AF69" points="62.58,13.257 63.218,13.52 61.368,14.094 	"/>
	<polygon fill="#F18C2A" points="63.251,12.259 63.226,12.258 62.301,13.167 	"/>
	<polygon fill="#F0861F" points="62.625,12.248 62.585,12.245 62.268,13.186 	"/>
	<polygon fill="#F0861F" points="61.557,12.832 62.277,13.167 61.511,12.852 	"/>
	<polygon fill="#F0861F" points="63.218,13.52 62.536,13.28 62.572,13.253 	"/>
	<polygon fill="#F0861F" points="63.353,12.677 63.113,12.855 63.328,12.853 	"/>
	<polygon fill="#FACB99" points="63.667,12.851 63.328,12.853 63.353,12.677 	"/>
</g>
<path d="M15.209,89.489H17v7.389c0,0.026,0.002,0.052,0.004,0.078H8.289c-0.344,0-0.622,0.279-0.622,0.622v1.089h13.689v-1.089
	c0-0.344-0.279-0.622-0.622-0.622h-0.315c0.002-0.026,0.004-0.051,0.004-0.078v-11.2c0-0.558-0.454-1.011-1.011-1.011h-1.4
	c-0.558,0-1.011,0.454-1.011,1.011v3.033l-2.822,0.007c-0.026-0.007,0.165-0.002,0.01-0.007l-0.197,0.005
	c-0.32,0.003-0.586-0.01-0.906-0.031c-0.033-0.002-0.064-0.009-0.096-0.014c0.012,0.287,0.025,0.572-0.011,0.859
	c-0.002,0.016-0.059-0.096-0.062-0.08 M17.778,85.678c0-0.129,0.105-0.233,0.233-0.233h1.253l-1.487,1.151V85.678z M17.778,88.001
	l1.604,1.242l-1.604,1.242V88.001z M17.778,92.045l1.604,1.242l-1.604,1.242V92.045z M17.792,96.956
	c-0.009-0.024-0.014-0.05-0.014-0.078v-0.788l1.118,0.866H17.792z M19.644,96.551l-1.604-1.242l1.604-1.242V96.551z M19.644,92.507
	l-1.604-1.242l1.604-1.242V92.507z M19.644,88.463l-1.503-1.164l1.503-1.164V88.463z"/>
</svg>
