<svg xmlns="http://www.w3.org/2000/svg" width="1300" height="300" viewBox="0 0 1300 300"><g><g fill-rule="evenodd" clip-rule="evenodd"><path fill="#00ACEE" d="M128.003 87.264c-.02-6.328 1.35-12.323 4.578-17.79 6.022-10.197 14.95-16.24 26.734-17.37 20.18-1.936 35 12.436 37.694 28.49.358 2.14.607 4.277.438 6.448-.58.212-1.035-.137-1.49-.375-6.127-3.2-12.695-4.18-19.49-3.627-3.717.302-7.308 1.33-10.697 2.953-.847.406-1.66.883-2.542 1.215-.202.054-.404.056-.608.013-2.444-1.124-4.84-2.353-7.468-3.052-8.86-2.36-17.377-1.528-25.56 2.63-.4.205-.772.466-1.217.573-.142.026-.265-.01-.372-.106z"/><path fill="#EC018B" d="M197.536 87.245c7.41 4.266 12.496 10.485 15.362 18.5 7.442 20.808-6.335 43.212-28.363 46.04-7.344.943-14.385-.257-20.942-3.842-.175-.097-.327-.233-.488-.35-.07-.585.41-.75.77-.98 6.197-3.896 10.713-9.246 13.59-15.943 1.505-3.504 2.402-7.188 2.514-11.03.028-.98.258-1.936.32-2.912.034-.124.088-.237.16-.343 2.838-1.862 5.495-3.942 7.775-6.474 4.775-5.3 7.714-11.458 8.658-18.546.14-1.05.29-2.098.26-3.165-.008-.35-.037-.756.383-.955z"/><path fill="#FDF100" d="M162.743 147.54c-3.575 2.27-7.53 3.58-11.67 4.147-7.986 1.09-15.588-.125-22.687-4.162-11.778-6.698-18.77-20.23-17.27-33.68 1.255-11.26 6.726-19.918 16.196-26.084.237-.154.46-.33.69-.496.025.04.06.07.1.09.626 1.168.32 2.47.498 3.703 1.53 10.662 6.824 18.89 15.798 24.79.34.224.7.425.95.762.068.107.117.224.15.346.362 4.47.856 8.908 2.59 13.12 2.832 6.883 7.393 12.306 13.588 16.388.427.28 1 .435 1.067 1.076z"/><path fill="#ED1D25" d="M162.743 147.54c-3.766-2.338-7.146-5.122-9.885-8.635-5.038-6.462-7.574-13.777-7.476-21.99.578-.232 1.03.124 1.487.357 4.537 2.298 9.307 3.6 14.423 3.792 5.915.223 11.495-.9 16.8-3.495.748-.367 1.425-.996 2.366-.832.012 4.89-.806 9.632-2.73 14.137-1.762 4.118-4.178 7.84-7.38 10.988-1.94 1.91-4 3.707-6.395 5.063-.313.176-.686.29-.85.664-.12-.015-.242-.03-.362-.05z"/><path fill="#2E3191" d="M197.536 87.245c-.15 8.11-2.808 15.315-7.93 21.586-2.54 3.112-5.51 5.765-9.054 7.72-.5-.348-.542-.89-.556-1.42-.16-6.498-2.486-12.28-6.053-17.575-2.552-3.788-5.836-6.904-9.736-9.34-.45-.28-1.116-.412-1.087-1.163 3.608-2.282 7.6-3.552 11.777-4.138 7.596-1.064 14.858.07 21.668 3.72.284.153.587.273.88.41.045.06.075.126.09.2z"/><path fill="#37363A" d="M163.12 87.052c1.974 1.418 3.996 2.76 5.827 4.385 2.994 2.657 5.374 5.77 7.27 9.262 2.478 4.565 4.022 9.407 4.113 14.653.006.4.146.798.222 1.198-.017.07-.047.133-.092.19-4.162 2.24-8.51 3.88-13.25 4.45-7.045.843-13.727-.247-20.073-3.413-.583-.29-1.17-.573-1.754-.86-.048-.066-.086-.135-.113-.21-.375-1.165-.163-2.36-.016-3.502.957-7.436 3.896-13.976 8.968-19.545 2.04-2.24 4.31-4.19 6.844-5.84.508-.33 1.003-.707 1.644-.76l.41-.008z"/><path fill="#00A650" d="M162.71 87.06c-2.168 1.515-4.36 2.982-6.305 4.807-4.067 3.813-7.005 8.34-8.973 13.536-1.38 3.647-1.878 7.452-2.163 11.303-8.69-5.13-14.107-12.658-16.414-22.444-.533-2.263-.88-4.564-.753-6.908 3.27-2.17 6.917-3.444 10.726-4.166 7.96-1.508 15.616-.54 22.852 3.23.357.187.686.427 1.027.64z"/></g><g fill-rule="evenodd" clip-rule="evenodd"><path fill="#FE0000" d="M399.33 88.924c-2.502-17.007 8.945-33.092 25.425-36.965 18.274-4.296 37.005 8.003 40.17 26.542.627 3.664.763 7.297.126 10.958-.812.315-1.5-.128-2.218-.372-9.303-3.155-18.33-2.565-27.077 1.964-1.106.573-2.033 1.453-3.244 1.838-.197.034-.39.018-.582-.04-4.368-2.86-9.03-4.962-14.254-5.718-5.51-.796-10.88-.328-16.14 1.497-.708.246-1.4.726-2.204.294z"/><path fill="#0000FE" d="M465.262 89.645c13.077 5.873 20.936 19.553 19.396 33.808-1.796 16.636-14.846 27.842-28.744 29.583-8.096 1.014-15.56-.655-22.448-4.977-.544-.343-1.162-.608-1.5-1.214.114-.812.825-1.108 1.353-1.555 7.74-6.545 11.948-14.808 12.172-25.012.038-1.772-.07-3.54-.086-5.313.287-.733.972-.994 1.595-1.325 9.035-4.796 14.804-12.138 17.25-22.085.17-.702.053-1.605 1.012-1.91z"/><path fill="#00FE00" d="M431.637 146.854c-3.976 3.218-8.636 4.918-13.59 5.674-18.285 2.792-34.678-8.77-38.23-26.834-2.933-14.928 5.562-30.94 19.38-36.527.62.298.72.898.844 1.477 2.26 10.514 8.216 18.194 17.73 23.148.317.164.63.335.866.615.102.157.17.327.208.51-.617 6.05-.206 11.965 2.196 17.65 2.098 4.96 5.176 9.187 9.254 12.697.532.458 1.2.802 1.343 1.59z"/><path fill="#00FEFE" d="M431.637 146.854c-9.762-7.595-14.162-17.598-13.4-29.904.04-.704.238-1.396.363-2.09.63-.507 1.27-.164 1.85.053 7.842 2.938 15.674 2.944 23.512.003.39-.146.794-.25 1.217-.26.207.002.386.077.533.224 1.345 13.205-3.06 23.936-13.745 31.966l-.164.054-.167-.046z"/><path fill="#FEFE00" d="M418.45 114.522c-10.255-4.708-16.337-12.744-18.85-23.628-.132-.577-.27-1.152-.403-1.728.016-.096.06-.177.133-.243 5.09-2.01 10.354-3.015 15.828-2.557 6.204.52 11.924 2.422 16.915 6.256.274.8-.445 1.024-.857 1.353-6.206 4.96-10.218 11.285-11.93 19.054-.128.58-.235 1.174-.835 1.492z"/><path fill="#FE00FE" d="M465.262 89.645c-.896 2.993-1.56 6.05-2.94 8.896-3.32 6.837-8.314 12.006-15.07 15.478-.522.27-1.026.576-1.54.862-.055-.048-.114-.097-.174-.144-.494-.566-.55-1.293-.695-1.98-1.6-7.508-5.453-13.646-11.265-18.602-.49-.417-1.087-.752-1.104-1.512 9.587-6.577 19.877-7.607 30.765-3.893.612.208 1.208.47 1.812.71.124.008.194.07.21.185z"/><path fill="#FEFEFE" d="M432.474 92.642c3.954 3.25 7.405 6.928 9.74 11.54 1.687 3.334 2.988 6.793 3.323 10.553-7.947 3.595-16.04 3.78-24.253 1.01-.894-.3-1.79-.592-2.685-.888l-.15-.335c1.18-5.63 3.312-10.822 6.926-15.362 1.962-2.465 4.37-4.457 6.697-6.538l.4.02z"/></g><path fill="#2DDFE8" d="M662 75.578c0 3.547-2.875 6.422-6.422 6.422h-23.156c-3.547 0-6.422-2.875-6.422-6.422V53.422c0-3.547 2.875-6.422 6.422-6.422h23.156c3.547 0 6.422 2.875 6.422 6.422v22.156z"/><path fill="#EACA2A" d="M706 119.578c0 3.547-2.875 6.422-6.422 6.422h-23.156c-3.547 0-6.422-2.875-6.422-6.422V97.422c0-3.547 2.875-6.422 6.422-6.422h23.156c3.547 0 6.422 2.875 6.422 6.422v22.156z"/><path fill="#E8922D" d="M750 119.578c0 3.547-2.875 6.422-6.42 6.422h-23.16c-3.545 0-6.42-2.875-6.42-6.422V97.422c0-3.547 2.875-6.422 6.42-6.422h23.16c3.545 0 6.42 2.875 6.42 6.422v22.156z"/><path fill="#A9EA2A" d="M750 75.58c0 3.545-2.875 6.42-6.42 6.42h-23.16c-3.545 0-6.42-2.875-6.42-6.42V53.42c0-3.545 2.875-6.42 6.42-6.42h23.16c3.545 0 6.42 2.875 6.42 6.42v22.16z"/><path fill="#2AEA77" d="M706 75.58c0 3.545-2.875 6.42-6.422 6.42h-23.156c-3.547 0-6.422-2.875-6.422-6.42V53.42c0-3.545 2.875-6.42 6.422-6.42h23.156c3.547 0 6.422 2.875 6.422 6.42v22.16z"/><path fill="#EDED29" d="M662 119.578c0 3.547-2.875 6.422-6.422 6.422h-23.156c-3.547 0-6.422-2.875-6.422-6.422V97.422c0-3.547 2.875-6.422 6.422-6.422h23.156c3.547 0 6.422 2.875 6.422 6.422v22.156z"/><path fill="#EA772A" d="M662 162.58c0 3.545-2.875 6.42-6.422 6.42h-23.156c-3.547 0-6.422-2.875-6.422-6.42v-22.16c0-3.545 2.875-6.42 6.422-6.42h23.156c3.547 0 6.422 2.875 6.422 6.42v22.16z"/><path fill="#8AF9F9" d="M656 72.456c0 2.51-2.035 4.544-4.545 4.544h-15.91c-2.51 0-4.545-2.035-4.545-4.544V56.544c0-2.51 2.035-4.544 4.545-4.544h15.91c2.51 0 4.545 2.035 4.545 4.544v15.912z"/><path fill="#73FFAC" d="M701 72.456c0 2.51-2.035 4.544-4.545 4.544h-15.91c-2.51 0-4.545-2.034-4.545-4.544V56.544c0-2.51 2.035-4.544 4.545-4.544h15.91c2.51 0 4.545 2.034 4.545 4.544v15.912z"/><path fill="#D2F973" d="M744 72.81c0 2.313-2.083 4.19-4.653 4.19h-15.693c-2.57 0-4.653-1.876-4.653-4.19V56.19c0-2.313 2.084-4.19 4.654-4.19h15.693c2.57 0 4.653 1.876 4.653 4.19v16.62z"/><path fill="#FCF870" d="M658 116.622c0 2.51-2.378 4.378-4.89 4.378h-16.357c-2.51 0-4.753-1.87-4.753-4.378v-15.634c0-2.51 2.243-4.987 4.753-4.987h16.358c2.512 0 4.89 2.48 4.89 4.988v15.634z"/><path fill="#FFE473" d="M701 116.456c0 2.51-2.035 4.544-4.545 4.544h-15.91c-2.51 0-4.545-2.034-4.545-4.544v-15.912c0-2.51 2.035-4.544 4.545-4.544h15.91c2.51 0 4.545 2.034 4.545 4.544v15.912z"/><path fill="#F9A450" d="M745 116.52c0 2.51-2.232 4.48-4.743 4.48h-16.325c-2.51 0-4.932-1.97-4.932-4.48v-15.75c0-2.51 2.42-4.77 4.932-4.77h16.325c2.51 0 4.743 2.26 4.743 4.77v15.75z"/><path fill="none" d="M656 159.456c0 2.51-2.035 4.544-4.545 4.544h-15.91c-2.51 0-4.545-2.034-4.545-4.544v-15.912c0-2.51 2.035-4.544 4.545-4.544h15.91c2.51 0 4.545 2.034 4.545 4.544v15.912z"/><g fill="#00ACEE"><path d="M1061.37 57.05H944.644c-3.018 0-5.47 1.806-5.47 4.038 0 2.23 2.452 4.037 5.47 4.037h116.725c3.02 0 5.474-1.806 5.474-4.037 0-2.232-2.454-4.037-5.475-4.037zM1061.37 89.602H944.644c-3.018 0-5.47 1.81-5.47 4.038 0 2.233 2.452 4.038 5.47 4.038h116.725c3.02 0 5.474-1.805 5.474-4.038 0-2.23-2.454-4.038-5.475-4.038zM1062.46 120.12H945.737c-3.02 0-5.47 1.804-5.47 4.034 0 2.234 2.45 4.04 5.47 4.04h116.725c3.022 0 5.472-1.805 5.472-4.04 0-2.23-2.45-4.035-5.47-4.035z"/></g><path fill="none" d="M624 182.5h146v61H624z"/><text transform="translate(624 215.399)" font-family="'NixieOne'" font-size="47">APPS</text><path fill="none" d="M816.406 182h400v62h-400z"/><text transform="translate(816.406 214.899)" font-family="'NixieOne'" font-size="47">SUBSCRIPTIONS</text></g><g><path fill="none" d="M91 180h158v45H91z"/><text transform="translate(91 212.899)" font-family="'NixieOne'" font-size="47">PRINT</text><path fill="none" d="M377 180h116v43H377z"/><text transform="translate(377 212.899)" font-family="'NixieOne'" font-size="47">WEB</text></g></svg>