<svg xmlns="http://www.w3.org/2000/svg" xmlns:xlink="http://www.w3.org/1999/xlink" width="2360" height="250" viewBox="0 0 2360 250"><defs><path id="a" d="M875.44 22.284h317.5V260.41h-317.5z"/></defs><clipPath id="b"><use xlink:href="#a" overflow="visible"/></clipPath><g clip-path="url(#b)"><defs><path id="c" d="M875.44 22.284h317.5V260.41h-317.5z"/></defs><clipPath id="d"><use xlink:href="#c" overflow="visible"/></clipPath><path clip-path="url(#d)" d="M1130.79 41.492h-187.7c-7.165 0-13.014 5.867-13.014 13.005v134.957c0 7.138 5.85 13.004 13.014 13.004h187.7c7.156 0 13.005-5.866 13.005-13.004V54.497c0-7.14-5.85-13.005-13.004-13.005m3.244 151.845H938.86V49.167h195.173v144.17zM1013.562 206.593l-24.56 24.952h97.644l-24.568-24.952z"/></g><g clip-path="url(#b)"><text transform="translate(1011.517 181.326)" font-family="'NixieOne'" font-size="23.813">WEB</text></g><g clip-path="url(#b)"><defs><path id="e" d="M875.44 22.284h317.5V260.41h-317.5z"/></defs><clipPath id="f"><use xlink:href="#e" overflow="visible"/></clipPath><path clip-path="url(#f)" fill-rule="evenodd" clip-rule="evenodd" fill="#FE0000" d="M1017.283 96.724c-1.7-11.555 6.077-22.483 17.274-25.115 12.417-2.92 25.143 5.437 27.293 18.033.426 2.49.518 4.958.085 7.445-.553.214-1.02-.087-1.508-.252-6.32-2.144-12.453-1.743-18.396 1.334-.75.39-1.38.987-2.203 1.25-.135.02-.267.01-.396-.03-2.967-1.942-6.135-3.37-9.684-3.882-3.742-.542-7.392-.224-10.964 1.017-.482.166-.952.493-1.5.2"/><path clip-path="url(#f)" fill-rule="evenodd" clip-rule="evenodd" fill="#0000FE" d="M1062.08 97.214c8.884 3.99 14.223 13.285 13.177 22.97-1.22 11.302-10.087 18.916-19.53 20.1-5.5.687-10.57-.446-15.252-3.383-.37-.23-.79-.412-1.018-.823.077-.55.56-.753.918-1.056 5.26-4.447 8.12-10.06 8.27-16.994.027-1.204-.046-2.406-.058-3.61.195-.498.66-.675 1.083-.9 6.14-3.258 10.057-8.246 11.72-15.003.117-.48.038-1.092.69-1.3"/><path clip-path="url(#f)" fill-rule="evenodd" clip-rule="evenodd" fill="#00FE00" d="M1039.233 136.083c-2.702 2.187-5.868 3.34-9.234 3.854-12.423 1.896-23.56-5.957-25.974-18.23-1.994-10.144 3.778-21.023 13.166-24.818.422.2.49.61.574 1.002 1.534 7.144 5.582 12.36 12.047 15.727.214.11.426.228.587.417.07.106.115.22.142.346-.42 4.112-.14 8.13 1.492 11.993 1.425 3.37 3.517 6.243 6.287 8.627.363.31.816.545.913 1.08"/><path clip-path="url(#f)" fill-rule="evenodd" clip-rule="evenodd" fill="#00FEFE" d="M1039.233 136.083c-6.633-5.16-9.623-11.956-9.105-20.318.03-.477.162-.948.247-1.42.43-.344.863-.112 1.258.036 5.327 1.998 10.648 2 15.974.003.264-.1.54-.17.827-.176.142 0 .263.052.363.152.913 8.97-2.08 16.262-9.34 21.717l-.11.037-.114-.03z"/><path clip-path="url(#f)" fill-rule="evenodd" clip-rule="evenodd" fill="#FEFE00" d="M1030.274 114.116c-6.968-3.198-11.1-8.66-12.808-16.054-.09-.39-.182-.782-.274-1.173.01-.066.042-.122.09-.166 3.458-1.365 7.035-2.048 10.754-1.738 4.215.353 8.102 1.646 11.492 4.25.187.544-.302.696-.582.92-4.216 3.37-6.943 7.667-8.105 12.945-.085.396-.158.8-.566 1.016"/><path clip-path="url(#f)" fill-rule="evenodd" clip-rule="evenodd" fill="#FE00FE" d="M1062.08 97.214c-.61 2.033-1.06 4.11-2 6.043-2.255 4.645-5.648 8.157-10.24 10.516-.354.183-.696.39-1.044.586-.038-.034-.08-.067-.12-.1-.335-.384-.373-.878-.472-1.344-1.085-5.1-3.705-9.272-7.653-12.64-.332-.283-.738-.51-.75-1.026 6.514-4.47 13.505-5.17 20.903-2.645.417.142.82.32 1.232.482.085.007.133.048.144.127"/><path clip-path="url(#f)" fill-rule="evenodd" clip-rule="evenodd" fill="#FEFEFE" d="M1039.802 99.25c2.687 2.208 5.03 4.707 6.618 7.84 1.146 2.265 2.03 4.615 2.258 7.17-5.4 2.442-10.898 2.57-16.48.687-.606-.205-1.215-.403-1.823-.604l-.1-.228c.8-3.826 2.25-7.353 4.704-10.438 1.332-1.675 2.968-3.028 4.55-4.442.09.006.18.01.272.015"/></g><defs><path id="g" d="M628.44 22.1h292v219h-292z"/></defs><clipPath id="h"><use xlink:href="#g" overflow="visible"/></clipPath><path clip-path="url(#h)" d="M819.154 40.35V67.18h27.706z"/><path clip-path="url(#h)" fill="none" stroke="#000" stroke-miterlimit="10" d="M819.154 40.35V67.18h27.706z"/><g clip-path="url(#h)"><defs><path id="i" d="M628.44 22.1h292v219h-292z"/></defs><clipPath id="j"><use xlink:href="#i" overflow="visible"/></clipPath><path clip-path="url(#j)" fill-rule="evenodd" clip-rule="evenodd" fill="#00ACEE" d="M746.653 117.307c-.017-5.036 1.074-9.807 3.643-14.156 4.792-8.114 11.897-12.922 21.273-13.822 16.06-1.54 27.852 9.896 29.995 22.67.286 1.705.483 3.405.35 5.132-.463.17-.825-.11-1.186-.298-4.878-2.546-10.105-3.326-15.512-2.887-2.957.24-5.814 1.057-8.512 2.35-.673.323-1.32.703-2.022.967-.16.043-.322.045-.484.01-1.945-.895-3.852-1.873-5.943-2.43-7.05-1.878-13.83-1.216-20.34 2.094-.317.162-.614.37-.967.456-.114.02-.212-.01-.297-.085"/><path clip-path="url(#j)" fill-rule="evenodd" clip-rule="evenodd" fill="#EC018B" d="M801.985 117.29c5.896 3.396 9.944 8.345 12.225 14.722 5.922 16.56-5.04 34.39-22.57 36.638-5.844.75-11.447-.205-16.665-3.058-.14-.076-.26-.186-.39-.28-.055-.463.326-.596.615-.776 4.93-3.1 8.524-7.36 10.814-12.688 1.197-2.787 1.91-5.72 2-8.775.022-.78.206-1.542.256-2.318.026-.1.07-.19.127-.273 2.258-1.48 4.372-3.137 6.187-5.152 3.8-4.218 6.14-9.118 6.89-14.76.11-.834.23-1.67.208-2.517-.008-.28-.03-.603.303-.762"/><path clip-path="url(#j)" fill-rule="evenodd" clip-rule="evenodd" fill="#FDF100" d="M774.298 165.272c-2.845 1.805-5.992 2.85-9.287 3.3-6.353.868-12.403-.1-18.05-3.312-9.375-5.33-14.94-16.1-13.745-26.802 1-8.96 5.353-15.85 12.888-20.757.19-.122.367-.262.55-.394.02.032.046.056.08.072.498.93.254 1.966.395 2.947 1.217 8.484 5.43 15.03 12.572 19.727.27.18.557.34.756.606.055.086.093.18.12.276.288 3.558.682 7.088 2.06 10.44 2.255 5.477 5.884 9.792 10.814 13.04.34.225.795.348.848.858"/><path clip-path="url(#j)" fill-rule="evenodd" clip-rule="evenodd" fill="#ED1D25" d="M774.298 165.272c-2.997-1.86-5.687-4.076-7.866-6.87-4.01-5.145-6.027-10.966-5.95-17.5.46-.186.82.1 1.185.283 3.61 1.83 7.407 2.865 11.478 3.018 4.707.178 9.147-.717 13.37-2.78.595-.292 1.133-.792 1.882-.66.01 3.89-.64 7.664-2.172 11.248-1.402 3.278-3.324 6.24-5.872 8.746-1.545 1.52-3.184 2.95-5.09 4.03-.25.14-.546.228-.675.526-.098-.012-.194-.026-.29-.04"/><path clip-path="url(#j)" fill-rule="evenodd" clip-rule="evenodd" fill="#2E3191" d="M801.985 117.29c-.12 6.456-2.234 12.19-6.31 17.18-2.022 2.475-4.385 4.586-7.205 6.143-.4-.278-.432-.71-.443-1.13-.127-5.172-1.98-9.774-4.817-13.987-2.03-3.014-4.645-5.495-7.748-7.432-.358-.224-.89-.33-.866-.926 2.872-1.816 6.047-2.827 9.373-3.293 6.043-.847 11.823.055 17.242 2.96.226.122.467.217.7.325.037.048.06.102.073.16"/><path clip-path="url(#j)" fill-rule="evenodd" clip-rule="evenodd" fill="#37363A" d="M774.597 117.138c1.572 1.128 3.18 2.196 4.638 3.49 2.383 2.114 4.276 4.59 5.785 7.37 1.973 3.634 3.2 7.487 3.273 11.662.005.317.116.635.177.953-.013.055-.038.104-.073.15-3.313 1.782-6.77 3.088-10.544 3.54-5.606.67-10.923-.195-15.974-2.716-.464-.23-.93-.456-1.397-.685-.038-.05-.068-.107-.09-.168-.298-.926-.13-1.877-.013-2.785.76-5.918 3.1-11.122 7.136-15.555 1.624-1.783 3.43-3.335 5.447-4.646.404-.264.798-.564 1.308-.606l.327-.006"/><path clip-path="url(#j)" fill-rule="evenodd" clip-rule="evenodd" fill="#00A650" d="M774.27 117.143c-1.724 1.206-3.468 2.374-5.016 3.825-3.236 3.035-5.574 6.636-7.14 10.772-1.1 2.902-1.495 5.93-1.72 8.994-6.914-4.08-11.226-10.072-13.062-17.86-.424-1.8-.7-3.63-.6-5.496 2.604-1.73 5.505-2.74 8.536-3.315 6.335-1.2 12.427-.43 18.186 2.57.284.15.545.34.817.51"/></g><g clip-path="url(#h)"><text transform="translate(739.895 203.987)"><tspan x="0" y="0" font-family="'NixieOne'" font-size="21.9">P</tspan><tspan x="13.775" y="0" font-family="'NixieOne'" font-size="21.9">RINT</tspan></text></g><g clip-path="url(#h)"><defs><path id="k" d="M628.44 22.1h292v219h-292z"/></defs><clipPath id="l"><use xlink:href="#k" overflow="visible"/></clipPath><path clip-path="url(#l)" fill="none" stroke="#000" stroke-width="27" stroke-miterlimit="10" d="M821.22 41.993H699.8v181.77h142.714V64.623z"/></g><defs><path id="m" d="M1128.447 10.418h316.833v237.625h-316.833z"/></defs><clipPath id="n"><use xlink:href="#m" overflow="visible"/></clipPath><g clip-path="url(#n)"><defs><path id="o" d="M1128.447 10.418h316.833v237.625h-316.833z"/></defs><clipPath id="p"><use xlink:href="#o" overflow="visible"/></clipPath><path clip-path="url(#p)" d="M1334.463 27.34h-85.743c-8.202 0-14.83 6.65-14.83 14.853v174.093c0 8.178 6.628 14.835 14.83 14.835h85.743c8.184 0 14.835-6.65 14.835-14.834V42.193c-.006-8.202-6.652-14.854-14.835-14.854m4.9 182.06h-95.537V47.347h95.537V209.4zm-27.498-170.954h-39.757v-4.333h39.764v4.333h-.007zm16.613-1.582c0 2.098-1.708 3.793-3.8 3.793-2.098 0-3.8-1.702-3.8-3.793 0-2.09 1.702-3.793 3.8-3.793 2.092-.006 3.8 1.696 3.8 3.794m-18.792 184.377h-36.2v-4.805h36.2v4.806z"/></g><g clip-path="url(#n)"><defs><path id="q" d="M1128.447 10.418h316.833v237.625h-316.833z"/></defs><clipPath id="r"><use xlink:href="#q" overflow="visible"/></clipPath><path clip-path="url(#r)" fill="#2DDFE8" d="M1273.794 78.886c0 2.432-1.972 4.403-4.403 4.403h-16.143c-2.433 0-4.403-1.972-4.403-4.404V63.93c0-2.43 1.97-4.402 4.403-4.402h16.144c2.433 0 4.404 1.97 4.404 4.402v14.956z"/><path clip-path="url(#r)" fill="#EACA2A" d="M1303.894 109.382c0 2.432-1.972 4.403-4.403 4.403h-16.144c-2.432 0-4.403-1.97-4.403-4.403V94.425c0-2.432 1.972-4.403 4.403-4.403h16.145c2.433 0 4.404 1.97 4.404 4.403v14.957z"/><path clip-path="url(#r)" fill="#E8922D" d="M1333.597 109.382c0 2.432-1.972 4.403-4.403 4.403h-16.145c-2.433 0-4.404-1.97-4.404-4.403V94.425c0-2.432 1.972-4.403 4.403-4.403h16.144c2.432 0 4.403 1.97 4.403 4.403v14.957z"/><path clip-path="url(#r)" fill="#A9EA2A" d="M1333.597 78.887c0 2.432-1.972 4.403-4.403 4.403h-16.145c-2.433 0-4.404-1.97-4.404-4.403V63.93c0-2.432 1.972-4.403 4.403-4.403h16.144c2.432 0 4.403 1.972 4.403 4.403v14.957z"/><path clip-path="url(#r)" fill="#2AEA77" d="M1303.894 78.887c0 2.432-1.972 4.403-4.403 4.403h-16.144c-2.432 0-4.403-1.97-4.403-4.403V63.93c0-2.432 1.972-4.403 4.403-4.403h16.145c2.433 0 4.404 1.972 4.404 4.403v14.957z"/><path clip-path="url(#r)" fill="#EDED29" d="M1273.794 109.382c0 2.432-1.972 4.403-4.402 4.403h-16.146c-2.432 0-4.402-1.97-4.402-4.403V94.425c0-2.432 1.97-4.403 4.402-4.403h16.146c2.43 0 4.402 1.97 4.402 4.403v14.957z"/><path clip-path="url(#r)" fill="#EA772A" d="M1273.794 138.293c0 2.432-1.972 4.402-4.402 4.402h-16.146c-2.432 0-4.402-1.97-4.402-4.402v-14.957c0-2.432 1.97-4.403 4.402-4.403h16.146c2.43 0 4.402 1.972 4.402 4.403v14.957z"/><path clip-path="url(#r)" fill="#8AF9F9" d="M1269.834 76.61c0 1.72-1.396 3.115-3.116 3.115h-11.194c-1.72 0-3.115-1.395-3.115-3.116v-10.8c0-1.72 1.394-3.115 3.114-3.115h11.194c1.72 0 3.116 1.395 3.116 3.116v10.8z"/><path clip-path="url(#r)" fill="#73FFAC" d="M1300.33 77.005c0 1.72-1.397 3.116-3.117 3.116h-11.193c-1.722 0-3.116-1.394-3.116-3.115V66.208c0-1.72 1.395-3.116 3.116-3.116h11.193c1.72 0 3.116 1.396 3.116 3.116v10.797z"/><path clip-path="url(#r)" fill="#D2F973" d="M1330.032 77.005c0 1.72-1.396 3.116-3.116 3.116h-11.193c-1.722 0-3.116-1.394-3.116-3.115V66.208c0-1.72 1.395-3.116 3.116-3.116h11.193c1.72 0 3.116 1.396 3.116 3.116v10.797z"/><path clip-path="url(#r)" fill="#FCF870" d="M1270.23 107.104c0 1.72-1.396 3.116-3.117 3.116h-11.193c-1.72 0-3.116-1.395-3.116-3.116V96.307c0-1.72 1.396-3.116 3.116-3.116h11.193c1.722 0 3.116 1.397 3.116 3.117v10.797z"/><path clip-path="url(#r)" fill="#FFE473" d="M1300.33 107.104c0 1.72-1.397 3.116-3.117 3.116h-11.193c-1.722 0-3.116-1.395-3.116-3.116V96.307c0-1.72 1.395-3.116 3.116-3.116h11.193c1.72 0 3.116 1.397 3.116 3.117v10.797z"/><path clip-path="url(#r)" fill="#F9A450" d="M1330.032 107.104c0 1.72-1.396 3.116-3.116 3.116h-11.193c-1.722 0-3.116-1.395-3.116-3.116V96.307c0-1.72 1.395-3.116 3.116-3.116h11.193c1.72 0 3.116 1.397 3.116 3.117v10.797z"/><path clip-path="url(#r)" fill="#FC9B59" d="M1269.834 136.412c0 1.72-1.396 3.115-3.116 3.115h-11.194c-1.72 0-3.115-1.395-3.115-3.115v-10.798c0-1.72 1.394-3.116 3.114-3.116h11.194c1.72 0 3.116 1.396 3.116 3.116v10.798z"/></g><g clip-path="url(#n)"><text transform="translate(1261.416 194.109)"><tspan x="0" y="0" font-family="'NixieOne'" font-size="23.762">A</tspan><tspan x="17.204" y="0" font-family="'NixieOne'" font-size="23.762">P</tspan><tspan x="32.127" y="0" font-family="'NixieOne'" font-size="23.762">PS</tspan></text></g><path fill="#020202" d="M1454.91 220.715c-2.06 0-4.926-1.643-4.926-3.668V57.863c0-2.023 2.865-3.67 4.926-3.67h15.982v7.76c0 2.025 1.672 3.668 3.736 3.668 2.063 0 3.732-1.642 3.732-3.668v-7.76h21.47v7.76c0 2.026 1.67 3.67 3.733 3.67s3.734-1.644 3.734-3.67v-7.76h18.668v7.76c0 2.026 1.67 3.67 3.734 3.67 2.062 0 3.733-1.644 3.733-3.67v-7.76h20.535v7.76c0 2.026 1.672 3.67 3.732 3.67 2.064 0 3.736-1.644 3.736-3.67v-7.76h17.85c2.06 0 4.922 1.647 4.922 3.67v27.365l.742-.727 7.29-8.332V59.81c0-8.09-6.702-14.676-14.937-14.676h-15.867v-8.867c0-2.027-1.67-3.67-3.736-3.67-2.06 0-3.732 1.642-3.732 3.67v8.867h-20.54v-8.867c0-2.027-1.67-3.67-3.733-3.67-2.064 0-3.734 1.642-3.734 3.67v8.867h-18.667v-8.867c0-2.027-1.672-3.67-3.736-3.67-2.063 0-3.734 1.642-3.734 3.67v8.867h-21.467v-8.867c0-2.027-1.67-3.67-3.734-3.67s-3.734 1.642-3.734 3.67v8.867h-14c-8.234 0-14.936 6.585-14.936 14.677v154.116c0 8.092 6.7 14.678 14.936 14.678h120.408c8.234 0 14.938-6.586 14.938-14.678l.008-139.707-8.03 7.5-.01 132.21.005 3.116c0 2.02-2.865 3.668-4.922 3.668"/><path fill="#00ACEE" d="M1563.64 84.74h-93.964c-2.43 0-4.404 1.452-4.404 3.25 0 1.795 1.975 3.25 4.404 3.25h93.965c2.433 0 4.407-1.455 4.407-3.25 0-1.798-1.975-3.25-4.406-3.25zM1563.64 110.943h-93.964c-2.43 0-4.404 1.456-4.404 3.25 0 1.798 1.975 3.25 4.404 3.25h93.965c2.433 0 4.407-1.452 4.407-3.25 0-1.794-1.975-3.25-4.406-3.25zM1564.52 135.51h-93.965c-2.432 0-4.404 1.453-4.404 3.248 0 1.8 1.974 3.252 4.405 3.252h93.965c2.432 0 4.404-1.453 4.404-3.252 0-1.795-1.973-3.248-4.404-3.248z"/><path fill="none" d="M1452.625 176.705h186.295V198.6h-186.295z"/><text transform="translate(1452.625 192.516)" font-family="'NixieOne'" font-size="22.586">SUBSCRIBE</text><path fill="#111" d="M76.09 25.942H92.5c-.01.162-.032.325-.032.487v13.434h-.503c-2.86 0-5.722.004-8.583 0-1.497-.003-2.6.64-3.22 2.006-.24.532-.442 1.114-.5 1.69-.1.998-.094 2.007-.1 3.013-.012 2.042-.003 4.083-.003 6.125v.432h13.913c-.04.148-.067.256-.1.363-1.053 3.48-2.11 6.958-3.152 10.44-.098.33-.247.414-.578.412-3.2-.015-6.402-.01-9.604-.01h-.478V101.618c0 .14.005.276.008.415h-15.96c0-.188-.007-.378-.006-.566L63.7 64.87v-.514c-.136-.01-.21-.02-.286-.02H55.02c-.087 0-.174.018-.26.028v-11.27c.062.006.124.016.187.016h8.503c.084 0 .168-.02.29-.034v-.462c.007-4.447 0-8.894.033-13.34.007-1.017.083-2.04.23-3.046.312-2.132 1.116-4.068 2.515-5.73 1.942-2.31 4.507-3.53 7.386-4.18.72-.16 1.456-.252 2.185-.376zM169.242 78.958c-6.075-.538-10.134-3.568-12.39-9.27 2.052.28 3.948.292 5.88-.243-7.84-1.96-10.724-8.882-10.44-13.19 1.816.902 3.682 1.527 5.896 1.583-3.364-2.46-5.297-5.6-5.752-9.557-.33-2.855.212-5.575 1.707-8.134 7.2 8.462 16.286 13.113 27.395 13.886-.085-.772-.182-1.473-.234-2.178-.47-6.102 3.412-11.683 9.035-13.477 4.923-1.57 9.384-.586 13.25 2.858.51.453.906.616 1.6.44 2.407-.61 4.708-1.468 6.88-2.674.162-.09.333-.167.63-.315-1.026 3.105-2.903 5.393-5.472 7.184 2.483-.22 4.82-.928 7.096-1.878l.14.158c-1.057 1.235-2.062 2.52-3.187 3.69-.904.94-1.944 1.75-2.95 2.59-.3.25-.436.49-.432.9.093 11.947-4.232 22.006-13.078 30.036-4.983 4.522-10.91 7.23-17.528 8.4-6.968 1.236-13.798.717-20.453-1.743-2.438-.9-4.76-2.05-6.95-3.51 3.447.27 6.84.028 10.17-.914 3.323-.943 6.356-2.458 9.185-4.642zM280.81 29.445c.095 1.108-.256 1.78-1.47 2.18-1.266.42-2.593.674-3.907.925-1.243.237-2.506.376-3.814.566.084.16.1.246.147.272 2.916 1.608 4.436 4.148 4.875 7.382.48 3.535.533 7.055-.477 10.528-.722 2.485-2.06 4.59-3.896 6.392-.895.876-1.823 1.717-2.684 2.625-1.448 1.53-1.554 3.04-.142 4.59 1.3 1.426 2.767 2.704 4.19 4.013 1.866 1.715 3.63 3.516 4.987 5.676 2.19 3.48 2.595 7.28 1.983 11.248-1.025 6.666-5 10.906-11.176 13.135-6.533 2.356-13.185 2.47-19.807.348-3.607-1.157-6.62-3.2-8.484-6.64-.797-1.468-1.24-3.052-1.45-4.704-.03-.23-.093-.456-.14-.686v-2.978c.043-.155.11-.31.13-.467.294-2.51 1.22-4.747 2.893-6.647 2.207-2.51 5.072-3.955 8.2-4.945 3.336-1.06 6.776-1.457 10.26-1.55.263-.008.526-.002.94-.002-1.803-2.52-2.623-5.147-2.457-7.882-2.002-.27-3.948-.373-5.813-.814-3.894-.922-6.886-3.12-8.678-6.784-1.177-2.405-1.567-4.99-1.612-7.63-.075-4.48 1.06-8.562 4.19-11.91 2.475-2.645 5.58-4.252 9.022-5.22 1.56-.438 3.172-.688 4.76-1.022h19.428zm-19.195 44.867c-.823.07-1.653.095-2.468.218-3.697.56-6.903 2.06-9.323 5-3.446 4.187-2.61 9.636 1.935 12.562 2.052 1.32 4.353 1.905 6.763 2.082 3.48.252 6.84-.205 9.943-1.906 6.685-3.662 6.166-11.438 1.6-15.162-2.458-2.003-5.338-2.737-8.45-2.794zm-9.98-29.928c.185 4.248 1.67 8.616 5.604 11.872 3.252 2.69 7.32 2.112 9.735-1.34 1.19-1.7 1.813-3.61 2.082-5.65.44-3.35-.396-6.45-1.784-9.457-1.343-2.913-3.48-4.766-6.73-5.184-3.075-.396-5.575.12-7.52 3.693-.908 1.666-1.29 3.483-1.39 6.064zM312.146 65.033h-12.172V77.16h-7.655V65.032h-12.145v-7.688h12.116V45.216h7.688v12.16h12.168v7.657z"/><path fill="#fff" d="M398.607 23.143h16.413c-.01.162-.032.325-.032.487v13.435h-.503c-2.86 0-5.722.004-8.583 0-1.497-.003-2.6.64-3.22 2.006-.24.533-.442 1.115-.5 1.69-.1 1-.094 2.008-.1 3.014-.012 2.042-.003 4.083-.003 6.125v.43h13.91c-.04.15-.066.257-.098.364-1.054 3.48-2.112 6.958-3.153 10.44-.1.33-.25.414-.58.412-3.2-.015-6.402-.01-9.604-.01h-.478V98.82c0 .14.005.276.008.415h-15.96c0-.188-.007-.378-.006-.566l.098-36.597v-.513c-.136-.01-.21-.02-.286-.02h-8.394c-.087 0-.174.018-.26.028v-11.27c.062.006.124.016.187.016 2.834.002 5.67.002 8.503 0 .084 0 .168-.018.29-.033v-.462c.007-4.447 0-8.894.033-13.34.008-1.017.084-2.04.23-3.046.313-2.133 1.117-4.07 2.516-5.732 1.942-2.31 4.507-3.528 7.386-4.178.72-.162 1.456-.253 2.185-.377zM491.76 76.16c-6.075-.54-10.134-3.57-12.39-9.272 2.052.28 3.948.293 5.88-.242-7.84-1.96-10.724-8.882-10.44-13.19 1.816.902 3.682 1.527 5.896 1.583-3.364-2.46-5.297-5.602-5.752-9.558-.33-2.856.212-5.576 1.707-8.135 7.202 8.462 16.287 13.113 27.396 13.886-.085-.772-.182-1.473-.234-2.178-.47-6.102 3.412-11.683 9.035-13.477 4.924-1.57 9.385-.586 13.252 2.858.51.453.904.616 1.597.44 2.408-.61 4.71-1.468 6.88-2.674.163-.09.334-.168.632-.316-1.028 3.105-2.905 5.393-5.474 7.184 2.483-.218 4.82-.927 7.096-1.877l.14.158c-1.057 1.236-2.062 2.522-3.187 3.69-.904.94-1.944 1.75-2.95 2.59-.3.252-.436.492-.432.9.093 11.948-4.232 22.007-13.078 30.037-4.983 4.522-10.91 7.23-17.528 8.4-6.967 1.236-13.797.717-20.452-1.743-2.438-.9-4.76-2.05-6.95-3.51 3.447.27 6.84.028 10.17-.914 3.323-.943 6.356-2.457 9.185-4.64zM603.327 26.646c.095 1.108-.256 1.78-1.47 2.18-1.266.42-2.593.674-3.907.925-1.243.238-2.506.377-3.814.567.085.16.102.246.148.272 2.916 1.607 4.436 4.147 4.875 7.38.478 3.536.532 7.056-.478 10.53-.722 2.484-2.06 4.59-3.896 6.39-.894.877-1.822 1.718-2.683 2.626-1.448 1.53-1.554 3.04-.142 4.59 1.302 1.426 2.768 2.704 4.19 4.013 1.867 1.714 3.63 3.515 4.988 5.675 2.188 3.48 2.594 7.28 1.982 11.248-1.025 6.666-5 10.906-11.176 13.135-6.533 2.356-13.185 2.47-19.807.348-3.607-1.157-6.62-3.2-8.484-6.64-.797-1.468-1.24-3.052-1.45-4.704-.03-.23-.093-.457-.14-.687v-2.978c.043-.155.11-.31.13-.467.294-2.508 1.22-4.746 2.893-6.646 2.208-2.51 5.073-3.955 8.2-4.945 3.337-1.06 6.777-1.458 10.26-1.552.264-.007.527 0 .94 0-1.802-2.522-2.622-5.148-2.456-7.883-2.002-.27-3.948-.373-5.813-.814-3.894-.92-6.886-3.12-8.678-6.783-1.178-2.405-1.568-4.99-1.613-7.63-.075-4.48 1.06-8.562 4.19-11.91 2.475-2.645 5.58-4.252 9.022-5.22 1.56-.438 3.17-.688 4.76-1.022h19.427zm-19.194 44.867c-.823.07-1.653.095-2.468.218-3.697.56-6.903 2.06-9.323 5-3.446 4.188-2.61 9.637 1.935 12.563 2.053 1.32 4.354 1.905 6.764 2.082 3.48.252 6.84-.205 9.944-1.906 6.685-3.663 6.166-11.44 1.6-15.163-2.458-2.003-5.34-2.738-8.45-2.794zm-9.982-29.93c.187 4.25 1.67 8.617 5.606 11.873 3.253 2.69 7.32 2.112 9.736-1.34 1.19-1.7 1.813-3.61 2.082-5.65.44-3.35-.396-6.45-1.784-9.457-1.343-2.913-3.48-4.766-6.73-5.184-3.075-.396-5.575.12-7.52 3.693-.907 1.667-1.29 3.483-1.39 6.064zM634.663 62.233H622.49V74.36h-7.654V62.232h-12.144v-7.688h12.116V42.416h7.687v12.16h12.168v7.657z"/><path fill="#161616" d="M1649 48v15l430.764-1.005L2057.386 90l127.55-34.9-127.46-34.105 22.272 27.058z"/><g fill="#231F20"><path d="M2259.297 36.648h68.74v1.835h-68.74zM2259.297 55.427h68.74v1.836h-68.74zM2259.297 74.51h68.74v1.837h-68.74z"/></g></svg>