<?xml version="1.0" encoding="utf-8"?>
<!-- Generator: Adobe Illustrator 17.0.0, SVG Export Plug-In . SVG Version: 6.00 Build 0)  -->
<!DOCTYPE svg PUBLIC "-//W3C//DTD SVG 1.1//EN" "http://www.w3.org/Graphics/SVG/1.1/DTD/svg11.dtd">
<svg version="1.1" id="Layer_1" xmlns="http://www.w3.org/2000/svg" xmlns:xlink="http://www.w3.org/1999/xlink" x="0px" y="0px"
	 width="24.014px" height="24.014px" viewBox="0 0 24.014 24.014" enable-background="new 0 0 24.014 24.014" xml:space="preserve">
<path d="M24.013,0.001c0,0-3.601-0.101-7.2,1.7c-1.1,0.5-2.3,1.3-3.3,2.3c-1.617,1.617-4.129,4.594-6.107,7H3.013l-2,3l3.392,0.917
	c0.009,0.121,0.042,0.292,0.135,0.524L4.014,16.6c0,0-0.2,0.4,1.3,2c1.6,1.601,2.1,1.4,2.1,1.4l1.243-0.565
	c0.186,0.058,0.325,0.078,0.415,0.078L10.014,23l3-2v-4.528c2.423-1.959,5.396-4.42,7-5.972c1-1,1.8-2.2,2.399-3.3
	C24.113,3.601,24.013,0.001,24.013,0.001z M17.013,9.001c-1.101,0-2-0.9-2-2c0-1.101,0.899-2,2-2c1.1,0,2,0.899,2,2
	C19.013,8.101,18.113,9.001,17.013,9.001z M6.513,21.001c0.2,0.1,0.3,0.2,0.5,0.3c-0.2,0.2-0.4,0.5-0.601,0.7
	c-2.3,2.3-6.399,2-6.399,2s-0.3-4.101,2-6.4c0.2-0.2,0.5-0.399,0.7-0.6c0.1,0.2,0.199,0.3,0.3,0.5c-1.5,1.899-1.3,4.8-1.3,4.8
	S4.613,22.501,6.513,21.001z"/>
<g>
	<polygon fill="#EF7D1A" points="13.603,10.26 13.618,10.395 12.692,10.262 	"/>
	<polygon fill="#F3963A" points="9.153,11.527 11.321,10.293 10.718,12.211 	"/>
	<polygon fill="#F5A352" points="12.669,10.323 11.319,10.295 10.659,12.253 	"/>
	<polygon fill="#F7AF69" points="13.686,10.4 12.706,10.261 10.713,12.188 	"/>
	<polygon fill="#F8BC80" points="14.188,9.029 12.692,10.262 13.786,10.286 	"/>
	<polygon fill="#F3963A" points="12.877,11.171 12.601,12.88 11.22,12.392 	"/>
	<polygon fill="#EF7D1A" points="8.856,14.021 11.266,12.405 10.669,12.146 	"/>
	<polygon fill="#F7AF69" points="8.856,14.021 9.161,11.515 10.69,12.157 	"/>
	<polygon fill="#F7AF69" points="11.309,12.345 12.601,12.88 8.852,14.042 	"/>
	<polygon fill="#F18C2A" points="12.669,10.323 12.618,10.322 10.744,12.164 	"/>
	<polygon fill="#F0861F" points="11.401,10.3 11.319,10.295 10.677,12.202 	"/>
	<polygon fill="#F0861F" points="9.236,11.484 10.695,12.163 9.144,11.526 	"/>
	<polygon fill="#F0861F" points="12.601,12.88 11.22,12.392 11.293,12.338 	"/>
	<polygon fill="#F0861F" points="12.877,11.17 12.39,11.531 12.825,11.528 	"/>
	<polygon fill="#FACB99" points="13.513,11.523 12.825,11.528 12.877,11.17 	"/>
</g>
</svg>
