<?xml version="1.0" encoding="utf-8"?>
<!-- Generator: Adobe Illustrator 17.0.0, SVG Export Plug-In . SVG Version: 6.00 Build 0)  -->
<!DOCTYPE svg PUBLIC "-//W3C//DTD SVG 1.1//EN" "http://www.w3.org/Graphics/SVG/1.1/DTD/svg11.dtd">
<svg version="1.1" id="Layer_1" xmlns="http://www.w3.org/2000/svg" xmlns:xlink="http://www.w3.org/1999/xlink" x="0px" y="0px"
	 width="25px" height="50px" viewBox="0 0 25 50" enable-background="new 0 0 25 50" xml:space="preserve">
<polygon fill="#EF7D1A" points="14.256,9.381 14.969,9.834 10.711,13.812 "/>
<polygon fill="#F3963A" points="3.041,35.959 5.51,20.599 12.479,31.02 "/>
<polygon fill="#F5A352" points="10.919,14.166 5.51,20.615 12.45,31.472 "/>
<polygon fill="#F7AF69" points="15.265,9.523 10.763,13.742 12.348,30.952 "/>
<polygon fill="#F8BC80" points="10.555,1.73 10.711,13.812 15.098,8.592 "/>
<polygon fill="#F3963A" points="15.848,16.463 23.081,24.475 15.315,29.287 "/>
<polygon fill="#EF7D1A" points="14.008,47.136 15.558,29.112 11.97,31.007 "/>
<polygon fill="#F7AF69" points="14.008,47.136 3.017,35.869 12.107,30.944 "/>
<polygon fill="#F7AF69" points="15.434,28.671 23.081,24.475 14.089,47.237 "/>
<polygon fill="#F18C2A" points="10.919,14.166 10.711,14.409 12.35,30.71 "/>
<polygon fill="#F0861F" points="5.857,20.238 5.51,20.615 12.271,31.183 "/>
<polygon fill="#F0861F" points="3.158,35.385 12.155,30.944 3,35.996 "/>
<polygon fill="#F0861F" points="23.081,24.475 15.315,29.287 15.338,28.717 "/>
<polygon fill="#F0861F" points="15.845,16.463 15.701,20.238 17.381,18.112 "/>
<polygon fill="#FACB99" points="20.042,14.746 17.381,18.112 15.845,16.463 "/>
</svg>
