<?xml version="1.0" encoding="utf-8"?>
<!-- Generator: Adobe Illustrator 17.0.0, SVG Export Plug-In . SVG Version: 6.00 Build 0)  -->
<!DOCTYPE svg PUBLIC "-//W3C//DTD SVG 1.1//EN" "http://www.w3.org/Graphics/SVG/1.1/DTD/svg11.dtd">
<svg version="1.1" id="Capa_1" xmlns="http://www.w3.org/2000/svg" xmlns:xlink="http://www.w3.org/1999/xlink" x="0px" y="0px"
	 width="100px" height="100px" viewBox="0 0 100 100" enable-background="new 0 0 100 100" xml:space="preserve">
<path d="M54.488,38H66v47.5c0,0.169,0.013,0.334,0.025,0.5H10c-2.209,0-4,1.791-4,4v7h88v-7c0-2.209-1.791-4-4-4h-2.025
	C87.987,85.834,88,85.669,88,85.5v-72C88,9.916,85.084,7,81.5,7h-9C68.916,7,66,9.916,66,13.5V33l-18.141,0.047
	C47.69,33,48.922,33.036,47.922,33l-1.266,0.031c-2.057,0.022-3.767-0.063-5.823-0.198c-0.212-0.014-0.414-0.057-0.62-0.093
	c0.076,1.845,0.163,3.675-0.068,5.522c-0.013,0.106-0.382-0.619-0.396-0.513 M71,13.5c0-0.827,0.673-1.5,1.5-1.5h8.057L71,19.402
	V13.5z M71,28.432l10.31,7.985L71,44.402V28.432z M71,54.432l10.31,7.985L71,70.402V54.432z M71.092,86
	C71.036,85.843,71,85.676,71,85.5v-5.068L78.189,86H71.092z M83,83.402l-10.31-7.985L83,67.432V83.402z M83,57.402l-10.31-7.985
	L83,41.432V57.402z M83,31.402l-9.664-7.485L83,16.432V31.402z"/>
<path d="M24.767,73.752c0,0,0.358,1.133,6.178,1.414c6.013,0.098,6.596-1.21,6.596-1.21l1.328-3.376
	c0.462-0.233,0.764-0.452,0.936-0.618l8.244,4.914l2.028-9.363l-8.37-8.642c1.003-8.218,2.128-18.41,2.32-24.337
	c0.06-3.757-0.632-7.526-1.522-10.733C39.097,11.79,32.251,5.104,32.251,5.104s-7.059,6.464-10.599,16.554
	c-1.175,2.988-1.986,6.733-2.046,10.49c-0.097,6.075,0.612,16.4,1.285,24.649l-8.384,8.121l1.729,9.423l8.169-4.52
	c0.241,0.214,0.62,0.48,1.226,0.75L24.767,73.752z M28.134,27.586c2.099-2.033,5.479-1.981,7.514,0.12
	c2.033,2.099,1.979,5.481-0.12,7.514c-2.101,2.035-5.481,1.979-7.514-0.12C25.979,32.999,26.033,29.621,28.134,27.586z"/>
<path d="M39.192,70.327l-0.015,0.043c-0.367-0.988-1.147-1.804-2.206-2.162c-1.89-0.64-3.96,0.413-4.615,2.348l0.812,0.275
	c0.504-1.487,2.087-2.299,3.529-1.811c1.442,0.488,2.205,2.096,1.702,3.583l0.812,0.275c0.174-0.512,0.228-1.035,0.183-1.54
	c1.907,0.915,2.879,3.135,2.184,5.188c-0.273,0.806-0.773,1.503-1.446,2.015l-0.23,0.175l0.077,0.279
	c0.223,0.815,0.197,1.672-0.076,2.478c-0.751,2.218-3.168,3.411-5.386,2.66c-0.873-0.296-1.612-0.858-2.138-1.626L32.238,82.3
	l-0.249,0.022c-0.587,0.051-1.167-0.019-1.724-0.207c-1.376-0.466-2.406-1.591-2.758-3.008l-0.108-0.437l-0.432,0.129
	c-0.852,0.256-1.743,0.241-2.58-0.042c-2.218-0.751-3.412-3.168-2.66-5.386c0.042-0.124,0.092-0.244,0.144-0.361l0.123-0.278
	l-0.22-0.209c-1.206-1.139-1.642-2.885-1.112-4.451c0.642-1.895,2.5-3.037,4.411-2.862l0.001,0.058
	c1.57-0.031,2.87,1.183,2.899,2.706c0.029,1.522-1.224,2.786-2.794,2.816l0.017,0.857c2.042-0.04,3.673-1.695,3.635-3.69
	c-0.03-1.557-1.067-2.867-2.491-3.349c-0.006-0.002-0.012-0.002-0.018-0.004l0.001-0.002c-2.666-0.903-5.57,0.531-6.473,3.196
	c-0.605,1.787-0.163,3.771,1.124,5.137c-0.021,0.053-0.04,0.107-0.059,0.161c-0.903,2.666,0.531,5.569,3.197,6.473
	c0.869,0.295,1.789,0.348,2.683,0.159c0.509,1.506,1.677,2.685,3.194,3.199c0.592,0.201,1.205,0.29,1.827,0.265
	c0.619,0.821,1.453,1.424,2.426,1.754c2.666,0.903,5.569-0.531,6.472-3.197c0.297-0.878,0.351-1.807,0.158-2.704
	c0.699-0.595,1.22-1.366,1.518-2.244C43.292,74.133,41.858,71.23,39.192,70.327z"/>
<g>
	<polygon fill="#EF7D1A" points="31.816,43.359 32.093,43.563 30.256,45.061 	"/>
	<polygon fill="#F3963A" points="26.539,53.843 27.96,47.675 30.505,52.095 	"/>
	<polygon fill="#F5A352" points="30.331,45.211 27.959,47.681 30.481,52.278 	"/>
	<polygon fill="#F7AF69" points="32.222,43.444 30.279,45.035 30.453,52.064 	"/>
	<polygon fill="#F8BC80" points="30.522,40.152 30.256,45.061 32.179,43.062 	"/>
	<polygon fill="#F3963A" points="32.269,46.278 34.987,49.727 31.703,51.469 	"/>
	<polygon fill="#EF7D1A" points="30.686,58.679 31.807,51.405 30.298,52.076 	"/>
	<polygon fill="#F7AF69" points="30.686,58.679 26.531,53.806 30.356,52.054 	"/>
	<polygon fill="#F7AF69" points="31.769,51.222 34.987,49.727 30.716,58.723 	"/>
	<polygon fill="#F18C2A" points="30.331,45.211 30.24,45.304 30.461,51.966 	"/>
	<polygon fill="#F0861F" points="28.11,47.538 27.959,47.681 30.416,52.156 	"/>
	<polygon fill="#F0861F" points="26.602,53.613 30.376,52.056 26.521,53.857 	"/>
	<polygon fill="#F0861F" points="34.987,49.727 31.703,51.469 31.728,51.238 	"/>
	<polygon fill="#F0861F" points="32.268,46.278 32.107,47.806 32.847,46.989 	"/>
	<polygon fill="#FACB99" points="34.019,45.695 32.847,46.989 32.268,46.278 	"/>
</g>
<g>
	<g>
		<g>
			<path d="M52.92,19.779c-0.023-0.014-0.047-0.023-0.071-0.034c-0.194-0.128-0.411-0.221-0.633-0.276l-0.441,0.444l-0.428-0.449
				c-0.001,0-0.003,0-0.004,0.001c-0.212,0.051-0.42,0.138-0.609,0.257c-0.047,0.014-0.093,0.033-0.138,0.058
				c-0.274,0.154-0.535,0.184-0.821,0.095c-0.946-0.295-1.827-1.738-2.086-2.268c-0.069-0.143-0.182-0.248-0.314-0.313l-0.189-0.063
				c-0.137-0.024-0.282-0.008-0.417,0.058c-0.342,0.166-0.484,0.577-0.318,0.919c0.04,0.083,0.19,0.382,0.434,0.763l0.162,0.245
				c0.508,0.739,1.309,1.656,2.315,1.971c0.199,0.062,0.399,0.097,0.599,0.107v3.624c0,0.187,0.037,0.361,0.101,0.521
				c-0.005,0.034-0.011,0.068-0.011,0.104v6.584c0,0.449,0.364,0.813,0.813,0.813s0.813-0.364,0.813-0.813v-5.651
				c0.032,0.002,0.064,0.004,0.097,0.004c0.006,0,0.013-0.001,0.019-0.001v5.648c0,0.449,0.364,0.813,0.812,0.813l0,0
				c0.449,0,0.813-0.364,0.813-0.813v-6.46c0.043,0.041,0.09,0.078,0.144,0.108c0.104,0.057,0.217,0.084,0.328,0.084
				c0.244,0,0.48-0.13,0.605-0.359C56.436,21.936,53.79,20.313,52.92,19.779z M51.779,23.419h-0.008l-0.427-0.585l0.427-2.855h0.008
				l0.427,2.855L51.779,23.419z M53.588,24.199v-1.966C53.851,22.729,53.91,23.358,53.588,24.199z"/>
		</g>
		<g>
			<circle cx="51.775" cy="17.596" r="1.771"/>
		</g>
	</g>
	<g>
		<polygon fill="#EF7D1A" points="52.723,20.926 52.741,20.937 52.634,21.037 		"/>
		<polygon fill="#F3963A" points="52.441,21.595 52.503,21.208 52.679,21.47 		"/>
		<polygon fill="#F5A352" points="52.639,21.046 52.503,21.209 52.678,21.482 		"/>
		<polygon fill="#F7AF69" points="52.749,20.929 52.636,21.036 52.675,21.469 		"/>
		<polygon fill="#F8BC80" points="52.63,20.733 52.634,21.037 52.745,20.906 		"/>
		<polygon fill="#F3963A" points="52.763,21.104 52.945,21.306 52.75,21.427 		"/>
		<polygon fill="#EF7D1A" points="52.717,21.876 52.756,21.422 52.666,21.47 		"/>
		<polygon fill="#F7AF69" points="52.717,21.876 52.441,21.592 52.669,21.468 		"/>
		<polygon fill="#F7AF69" points="52.753,21.411 52.945,21.306 52.719,21.878 		"/>
		<polygon fill="#F18C2A" points="52.639,21.046 52.634,21.052 52.675,21.462 		"/>
		<polygon fill="#F0861F" points="52.512,21.199 52.503,21.209 52.673,21.474 		"/>
		<polygon fill="#F0861F" points="52.444,21.58 52.671,21.468 52.44,21.595 		"/>
		<polygon fill="#F0861F" points="52.945,21.306 52.75,21.427 52.751,21.412 		"/>
		<polygon fill="#F0861F" points="52.763,21.104 52.76,21.199 52.802,21.146 		"/>
		<polygon fill="#FACB99" points="52.869,21.061 52.802,21.146 52.763,21.104 		"/>
	</g>
</g>
<path d="M42.678,14.249l-0.035-0.03c0.17-0.61,0.015-1.292-0.464-1.771c-0.477-0.475-1.15-0.631-1.757-0.467l1.027,1.027
	l-0.269,1.006l-1.006,0.269l-1.027-1.026c-0.163,0.606-0.008,1.28,0.469,1.757c0.499,0.499,1.218,0.646,1.847,0.441l0.006,0.006
	l4.225,4.225c0.167,0.167,0.386,0.251,0.605,0.251s0.437-0.085,0.606-0.251c0.335-0.333,0.335-0.875,0-1.211L42.678,14.249z
	 M46.372,19.541c-0.18,0-0.326-0.146-0.326-0.327c0-0.181,0.146-0.327,0.326-0.327c0.181,0,0.327,0.146,0.327,0.327
	C46.7,19.394,46.553,19.541,46.372,19.541z"/>
</svg>
