<?xml version="1.0" encoding="utf-8"?>
<!-- Generator: Adobe Illustrator 17.0.0, SVG Export Plug-In . SVG Version: 6.00 Build 0)  -->
<!DOCTYPE svg PUBLIC "-//W3C//DTD SVG 1.1//EN" "http://www.w3.org/Graphics/SVG/1.1/DTD/svg11.dtd">
<svg version="1.1" id="Layer_1" xmlns="http://www.w3.org/2000/svg" xmlns:xlink="http://www.w3.org/1999/xlink" x="0px" y="0px"
	 width="126px" height="126px" viewBox="0 0 126 126" enable-background="new 0 0 126 126" xml:space="preserve">
<g>
	<g>
		<path d="M107.061,26.854c-0.146-0.09-0.301-0.148-0.453-0.218c-1.237-0.813-2.623-1.41-4.034-1.757L99.76,27.71l-2.728-2.863
			c-0.009,0.003-0.019,0.003-0.028,0.006c-1.352,0.323-2.679,0.883-3.88,1.639c-0.3,0.091-0.596,0.209-0.88,0.37
			c-1.749,0.982-3.413,1.174-5.232,0.607c-6.03-1.879-11.647-11.08-13.3-14.462c-0.44-0.909-1.162-1.579-2.001-1.996l-1.202-0.4
			c-0.873-0.15-1.797-0.049-2.656,0.369c-2.178,1.057-3.085,3.681-2.028,5.858c0.257,0.529,1.214,2.436,2.765,4.866l1.034,1.563
			c3.236,4.71,8.349,10.561,14.758,12.567c1.271,0.397,2.547,0.618,3.82,0.685v23.104c0,1.193,0.235,2.304,0.645,3.325
			c-0.029,0.219-0.067,0.435-0.067,0.661l0.003,41.983c0.001,2.863,2.32,5.182,5.182,5.182c2.862-0.001,5.182-2.32,5.182-5.182
			l-0.003-36.031c0.206,0.01,0.41,0.025,0.617,0.025c0.041,0,0.081-0.004,0.122-0.005l-0.001,36.01c0,2.861,2.319,5.182,5.18,5.182
			c0.001,0,0.001,0,0.001,0c2.861,0,5.181-2.32,5.181-5.182l0.001-41.187c0.273,0.26,0.571,0.5,0.916,0.689
			c0.666,0.362,1.384,0.533,2.091,0.533c1.555,0,3.061-0.828,3.855-2.29C129.478,40.603,112.605,30.255,107.061,26.854z
			 M99.787,50.062h-0.052l-2.724-3.727l2.724-18.204h0.052l2.724,18.204L99.787,50.062z M111.32,55.034V42.496
			C112.994,45.663,113.369,49.673,111.32,55.034z"/>
	</g>
	<g>
		<circle cx="99.76" cy="12.931" r="11.293"/>
	</g>
</g>
<g>
	<path d="M72.574,64.67H17.242c-3.514,0-6.374-2.859-6.374-6.374V7.58c0-3.514,2.859-6.374,6.374-6.374h55.332
		c3.515,0,6.375,2.86,6.375,6.374v50.717C78.948,61.812,76.088,64.67,72.574,64.67z M17.242,5.455c-1.172,0-2.124,0.953-2.124,2.125
		v50.717c0,1.171,0.952,2.125,2.124,2.125h55.332c1.172,0,2.125-0.953,2.125-2.125V7.58c0-1.172-0.953-2.125-2.125-2.125H17.242z"/>
</g>
<g>
	<circle cx="62.32" cy="79.923" r="8.942"/>
</g>
<path d="M51.96,109.269c-0.267-2.452,0.231-4.462,1.208-6.159v6.159h9.09l-2.116-2.896l2.156-14.415h0.042l2.157,14.415
	l-2.117,2.896h9.09v-6.142c0.971,1.693,1.464,3.699,1.199,6.142h6.998c0.804-10.729-7.993-16.138-11.4-18.228
	c-0.15-0.091-0.309-0.158-0.466-0.225c-0.995-0.665-2.113-1.153-3.253-1.433l-2.228,2.242l-2.159-2.266
	c-0.008,0.001-0.015,0.001-0.022,0.003c-1.164,0.279-2.305,0.778-3.318,1.457c-0.154,0.066-0.311,0.131-0.458,0.222
	c-3.407,2.09-12.204,7.498-11.4,18.228H51.96z"/>
<g>
	<rect x="6.711" y="112.051" width="102.236" height="12.743"/>
</g>
<path d="M61.18,18.75c0,0-4.976-0.14-9.949,2.349c-1.52,0.691-3.178,1.796-4.56,3.178c-2.234,2.234-5.705,6.348-8.438,9.672h-6.07
	L29.4,38.095l4.687,1.267c0.012,0.167,0.058,0.403,0.187,0.724l-0.727,1.6c0,0-0.276,0.553,1.796,2.764
	c2.211,2.212,2.902,1.934,2.902,1.934l1.718-0.781c0.257,0.08,0.449,0.108,0.573,0.108l1.302,4.818l4.145-2.764v-6.257
	c3.348-2.707,7.456-6.107,9.672-8.252c1.382-1.382,2.487-3.04,3.315-4.56C61.318,23.725,61.18,18.75,61.18,18.75z M51.508,31.186
	c-1.521,0-2.764-1.244-2.764-2.764c0-1.521,1.242-2.764,2.764-2.764c1.52,0,2.764,1.242,2.764,2.764
	C54.271,29.943,53.028,31.186,51.508,31.186z M36.999,47.767c0.276,0.138,0.415,0.276,0.691,0.415
	c-0.276,0.276-0.553,0.691-0.83,0.967c-3.178,3.178-8.842,2.764-8.842,2.764s-0.415-5.667,2.764-8.843
	c0.276-0.276,0.691-0.551,0.967-0.829c0.138,0.276,0.275,0.415,0.415,0.691c-2.073,2.624-1.796,6.632-1.796,6.632
	S34.374,49.84,36.999,47.767z"/>
<path d="M38.948,94.912c-0.667-1.48-4.138-2.795-5.335-3.212c-1.859-4.071-0.857-9.206-0.857-9.206
	c-0.324,1.461-0.743,2.019-0.743,2.019c-0.329,2.641-2.48,4.816-2.48,4.816c-0.041,0.711,0.05,1.315,0.22,1.828
	c-3.327,5.371-6.047,2.56-7.389,0.368c0.259-0.591,0.412-1.309,0.364-2.197c0,0-2.152-2.174-2.48-4.816c0,0-0.418-0.558-0.748-2.019
	c0,0,1.003,5.118-0.842,9.186c-1.436,0.612-2.874,1.05-2.874,1.05c-1.557,0.599-2.214,1.493-2.214,1.493
	C11.269,97.632,11,105.224,11,105.224c0.029,1.735-0.016,1.416-0.016,1.416c2.181,0.974,5.659,2.11,8.069,2.53
	c0.697-0.42,1.553-0.67,2.571-0.67c0.784,0,1.459,0.162,2.047,0.427c0.355-0.074,0.735-0.114,1.141-0.114
	c0.092,0,0.172,0.017,0.261,0.021c0.14-0.01,0.28-0.021,0.427-0.021c0.484,0,0.919,0.072,1.33,0.177
	c0.397-0.104,0.806-0.177,1.232-0.177h0.188c0.245,0,0.485,0.019,0.721,0.055c0.327-0.069,0.679-0.106,1.049-0.112
	c0.472-0.151,0.963-0.255,1.479-0.255h0.062c0.549,0,1.071,0.109,1.565,0.284c0.304-0.06,0.616-0.097,0.935-0.097h0.25
	c0.244,0,0.48,0.028,0.714,0.067c0.034-0.001,0.065-0.005,0.098-0.005c0.216,0,0.423,0.013,0.624,0.034
	c2.701-0.628,4.334-1.287,4.334-1.287c0.901-0.57,0.928-1.017,0.928-1.017C41.637,101.039,38.948,94.912,38.948,94.912z"/>
<path d="M29.805,79.177c0.089,0.339,0.638,2.086,2.478,2.875c0,0,0.069-0.719,0.268-0.787c0,0,0.224,0.112,0.293,0.383
	c0,0,0.48-4.59-1.61-6.301l0.014-0.026c-4.361-3.848-9.298-0.922-9.298-0.922c-3.617,2.332-2.605,7.358-2.605,7.358
	C26.145,82.398,29.698,79.269,29.805,79.177z"/>
<rect x="10.964" y="106.583" width="30.12" height="2.5"/>
<path fill="#FFFFFF" d="M10.713,109.144h6.997c-0.267-2.452,0.231-4.462,1.208-6.159v6.159h9.09"/>
<path fill="#FFFFFF" d="M25.192,109.206h9.09v-6.142c0.971,1.693,1.464,3.699,1.199,6.142h6.998"/>
<g>
	<polygon fill="#EF7D1A" points="105.805,34.165 105.92,34.238 105.237,34.876 	"/>
	<polygon fill="#F3963A" points="104.007,38.428 104.403,35.965 105.52,37.636 	"/>
	<polygon fill="#F5A352" points="105.27,34.933 104.403,35.967 105.516,37.709 	"/>
	<polygon fill="#F7AF69" points="105.967,34.188 105.245,34.865 105.499,37.625 	"/>
	<polygon fill="#F8BC80" points="105.212,32.938 105.237,34.876 105.941,34.039 	"/>
	<polygon fill="#F3963A" points="106.061,35.301 107.221,36.586 105.975,37.358 	"/>
	<polygon fill="#EF7D1A" points="105.766,40.221 106.014,37.33 105.439,37.634 	"/>
	<polygon fill="#F7AF69" points="105.766,40.221 104.003,38.414 105.461,37.624 	"/>
	<polygon fill="#F7AF69" points="105.994,37.259 107.221,36.586 105.779,40.237 	"/>
	<polygon fill="#F18C2A" points="105.27,34.933 105.237,34.972 105.5,37.586 	"/>
	<polygon fill="#F0861F" points="104.458,35.907 104.403,35.967 105.487,37.662 	"/>
	<polygon fill="#F0861F" points="104.025,38.336 105.469,37.624 104,38.434 	"/>
	<polygon fill="#F0861F" points="107.221,36.586 105.975,37.358 105.979,37.267 	"/>
	<polygon fill="#F0861F" points="106.06,35.301 106.037,35.907 106.307,35.566 	"/>
	<polygon fill="#FACB99" points="106.734,35.026 106.307,35.566 106.06,35.301 	"/>
</g>
<g>
	<polygon fill="#EF7D1A" points="66.805,98.165 66.92,98.238 66.237,98.876 	"/>
	<polygon fill="#F3963A" points="65.007,102.428 65.403,99.965 66.52,101.636 	"/>
	<polygon fill="#F5A352" points="66.27,98.933 65.403,99.967 66.516,101.709 	"/>
	<polygon fill="#F7AF69" points="66.967,98.188 66.245,98.865 66.499,101.625 	"/>
	<polygon fill="#F8BC80" points="66.212,96.938 66.237,98.876 66.941,98.039 	"/>
	<polygon fill="#F3963A" points="67.061,99.301 68.221,100.586 66.975,101.358 	"/>
	<polygon fill="#EF7D1A" points="66.766,104.221 67.014,101.33 66.439,101.634 	"/>
	<polygon fill="#F7AF69" points="66.766,104.221 65.003,102.414 66.461,101.624 	"/>
	<polygon fill="#F7AF69" points="66.994,101.259 68.221,100.586 66.779,104.237 	"/>
	<polygon fill="#F18C2A" points="66.27,98.933 66.237,98.972 66.5,101.586 	"/>
	<polygon fill="#F0861F" points="65.458,99.907 65.403,99.967 66.487,101.662 	"/>
	<polygon fill="#F0861F" points="65.025,102.336 66.469,101.624 65,102.434 	"/>
	<polygon fill="#F0861F" points="68.221,100.586 66.975,101.358 66.979,101.267 	"/>
	<polygon fill="#F0861F" points="67.06,99.301 67.037,99.907 67.307,99.566 	"/>
	<polygon fill="#FACB99" points="67.734,99.026 67.307,99.566 67.06,99.301 	"/>
</g>
<g>
	<polygon fill="#EF7D1A" points="29.805,98.165 29.92,98.238 29.237,98.876 	"/>
	<polygon fill="#F3963A" points="28.007,102.428 28.403,99.965 29.52,101.636 	"/>
	<polygon fill="#F5A352" points="29.27,98.933 28.403,99.967 29.516,101.709 	"/>
	<polygon fill="#F7AF69" points="29.967,98.188 29.245,98.865 29.499,101.625 	"/>
	<polygon fill="#F8BC80" points="29.212,96.938 29.237,98.876 29.941,98.039 	"/>
	<polygon fill="#F3963A" points="30.061,99.301 31.221,100.586 29.975,101.358 	"/>
	<polygon fill="#EF7D1A" points="29.766,104.221 30.014,101.33 29.439,101.634 	"/>
	<polygon fill="#F7AF69" points="29.766,104.221 28.003,102.414 29.461,101.624 	"/>
	<polygon fill="#F7AF69" points="29.994,101.259 31.221,100.586 29.779,104.237 	"/>
	<polygon fill="#F18C2A" points="29.27,98.933 29.237,98.972 29.5,101.586 	"/>
	<polygon fill="#F0861F" points="28.458,99.907 28.403,99.967 29.487,101.662 	"/>
	<polygon fill="#F0861F" points="28.025,102.336 29.469,101.624 28,102.434 	"/>
	<polygon fill="#F0861F" points="31.221,100.586 29.975,101.358 29.979,101.267 	"/>
	<polygon fill="#F0861F" points="30.06,99.301 30.037,99.907 30.307,99.566 	"/>
	<polygon fill="#FACB99" points="30.734,99.026 30.307,99.566 30.06,99.301 	"/>
</g>
<g>
	<polygon fill="#EF7D1A" points="47.603,32.26 47.618,32.395 46.692,32.262 	"/>
	<polygon fill="#F3963A" points="43.153,33.527 45.321,32.293 44.718,34.211 	"/>
	<polygon fill="#F5A352" points="46.669,32.323 45.319,32.295 44.659,34.253 	"/>
	<polygon fill="#F7AF69" points="47.686,32.4 46.706,32.261 44.713,34.188 	"/>
	<polygon fill="#F8BC80" points="48.188,31.029 46.692,32.262 47.786,32.286 	"/>
	<polygon fill="#F3963A" points="46.877,33.171 46.601,34.88 45.22,34.392 	"/>
	<polygon fill="#EF7D1A" points="42.856,36.021 45.266,34.405 44.669,34.146 	"/>
	<polygon fill="#F7AF69" points="42.856,36.021 43.161,33.515 44.69,34.157 	"/>
	<polygon fill="#F7AF69" points="45.309,34.345 46.601,34.88 42.852,36.042 	"/>
	<polygon fill="#F18C2A" points="46.669,32.323 46.618,32.322 44.744,34.164 	"/>
	<polygon fill="#F0861F" points="45.401,32.3 45.319,32.295 44.677,34.202 	"/>
	<polygon fill="#F0861F" points="43.236,33.484 44.695,34.163 43.144,33.526 	"/>
	<polygon fill="#F0861F" points="46.601,34.88 45.22,34.392 45.293,34.338 	"/>
	<polygon fill="#F0861F" points="46.877,33.17 46.39,33.531 46.825,33.528 	"/>
	<polygon fill="#FACB99" points="47.513,33.523 46.825,33.528 46.877,33.17 	"/>
</g>
</svg>
