<?xml version="1.0" encoding="utf-8"?>
<!-- Generator: Adobe Illustrator 17.0.0, SVG Export Plug-In . SVG Version: 6.00 Build 0)  -->
<!DOCTYPE svg PUBLIC "-//W3C//DTD SVG 1.1//EN" "http://www.w3.org/Graphics/SVG/1.1/DTD/svg11.dtd">
<svg version="1.1" id="Layer_1" xmlns="http://www.w3.org/2000/svg" xmlns:xlink="http://www.w3.org/1999/xlink" x="0px" y="0px"
	 width="26px" height="26px" viewBox="0 0 26 26" enable-background="new 0 0 26 26" xml:space="preserve">
<path d="M9.148,5.064L8.823,4.183l0.882-0.326l0.325,0.881l-0.88,0.325l0.372,1.008L8.337,6.407L7.975,5.428L9.148,5.064z
	 M10.727,6.627l-0.325-0.88L9.521,6.073l0.325,0.88L10.727,6.627z M4.531,6.369c0,0-0.248-0.474,0.027-0.415
	c0.277,0.059,0.998,0.265,1.913,0.091c0,0,0.102-0.006,0.243-0.057C7.044,5.866,7.46,5.55,7.57,4.737
	c0.006-0.04,0.148-0.98,1.148-1.35c0.55-0.204,1.255-0.189,2.092,0.044l0.009,0.002l-0.101-0.272
	c-0.109,0.01-0.215-0.048-0.255-0.156c-0.048-0.129,0.018-0.271,0.146-0.317l0.467-0.173c0.128-0.047,0.27,0.018,0.318,0.146
	c0.042,0.113-0.008,0.235-0.108,0.294l3.713,10.058l-0.567,0.208l-2.085-5.648l-0.229-0.111c-0.01-0.006-0.949-0.45-1.831-0.124
	C9.811,7.514,9.433,7.883,9.17,8.421C9.158,8.458,8.857,9.368,7.896,9.724c-0.444,0.164-1.239,0.23-2.025-0.182L5.666,9.493
	L4.531,6.369z M4.68,6.159l0.165,0.447l0.386-0.097L5.147,6.281C4.967,6.259,4.792,6.181,4.68,6.159z M11.981,7.176l-0.043-0.12
	l-0.159,0.058C11.853,7.135,11.924,7.157,11.981,7.176z M9.127,8.062L8.946,8.057l0.072,0.196C9.052,8.187,9.089,8.123,9.127,8.062z
	 M8.934,8.026L8.665,7.297L7.837,7.763l-0.325-0.88l0.824-0.477l0.329,0.89l1.18-0.343l0.111,0.301
	c0.083-0.043,0.166-0.084,0.255-0.117c0.222-0.081,0.444-0.117,0.656-0.127l-0.14-0.382l0.931-0.344L11.34,5.401l-0.938,0.346
	L10.03,4.739l0.945-0.349l-0.276-0.764c-0.076-0.02-0.148-0.037-0.221-0.054L9.706,3.858L9.559,3.463
	C9.276,3.466,9.019,3.506,8.794,3.59C8.736,3.611,8.681,3.634,8.631,3.66l0.192,0.523l-0.98,0.361
	C7.799,4.669,7.786,4.755,7.784,4.766C7.779,4.8,7.773,4.832,7.768,4.865l0.207,0.563L7.416,5.723
	c-0.077,0.1-0.159,0.182-0.242,0.248l0.337,0.914L6.486,7.193L6.81,8.074l1.026-0.31l0.284,0.77L8.934,8.026z M6.348,9.535
	L6.183,9.088l0.911-0.244l0.288,0.781c0.154-0.019,0.3-0.053,0.439-0.104c0.217-0.08,0.396-0.194,0.545-0.319L8.135,8.575
	L7.093,8.844l-0.284-0.77L5.903,8.328L5.577,7.447l0.907-0.255L6.157,6.307c-0.141,0.012-0.28,0.018-0.415,0.016l-0.51,0.188
	l0.347,0.936L5.165,7.484l0.344,0.944l0.395-0.099l0.28,0.76l-0.408,0.07l0.008,0.023L6.348,9.535z"/>
<g>
	<g>
		<g>
			<path d="M19.92,11.612c-0.023-0.014-0.047-0.023-0.071-0.034c-0.194-0.128-0.411-0.221-0.633-0.276l-0.441,0.444l-0.428-0.449
				c-0.001,0-0.003,0-0.004,0.001c-0.212,0.051-0.42,0.138-0.609,0.257c-0.047,0.014-0.093,0.033-0.138,0.058
				c-0.274,0.154-0.535,0.184-0.821,0.095c-0.946-0.295-1.827-1.738-2.086-2.268c-0.069-0.143-0.182-0.248-0.314-0.313l-0.189-0.063
				c-0.137-0.024-0.282-0.008-0.417,0.058c-0.342,0.166-0.484,0.577-0.318,0.919c0.04,0.083,0.19,0.382,0.434,0.763l0.162,0.245
				c0.508,0.739,1.309,1.656,2.315,1.971c0.199,0.062,0.399,0.097,0.599,0.107v3.624c0,0.187,0.037,0.361,0.101,0.521
				c-0.005,0.034-0.011,0.068-0.011,0.104l0,6.584c0,0.449,0.364,0.813,0.813,0.813c0.449,0,0.813-0.364,0.813-0.813l0-5.651
				c0.032,0.002,0.064,0.004,0.097,0.004c0.006,0,0.013-0.001,0.019-0.001l0,5.648c0,0.449,0.364,0.813,0.812,0.813c0,0,0,0,0,0
				c0.449,0,0.813-0.364,0.813-0.813l0-6.46c0.043,0.041,0.09,0.078,0.144,0.108c0.104,0.057,0.217,0.084,0.328,0.084
				c0.244,0,0.48-0.13,0.605-0.359C23.436,13.769,20.79,12.146,19.92,11.612z M18.779,15.252h-0.008l-0.427-0.585l0.427-2.855h0.008
				l0.427,2.855L18.779,15.252z M20.588,16.032v-1.966C20.851,14.562,20.91,15.191,20.588,16.032z"/>
		</g>
		<g>
			<circle cx="18.775" cy="9.429" r="1.771"/>
		</g>
	</g>
	<g>
		<polygon fill="#EF7D1A" points="19.723,12.759 19.741,12.77 19.634,12.87 		"/>
		<polygon fill="#F3963A" points="19.441,13.428 19.503,13.041 19.679,13.303 		"/>
		<polygon fill="#F5A352" points="19.639,12.879 19.503,13.042 19.678,13.315 		"/>
		<polygon fill="#F7AF69" points="19.749,12.762 19.636,12.869 19.675,13.302 		"/>
		<polygon fill="#F8BC80" points="19.63,12.566 19.634,12.87 19.745,12.739 		"/>
		<polygon fill="#F3963A" points="19.763,12.937 19.945,13.139 19.75,13.26 		"/>
		<polygon fill="#EF7D1A" points="19.717,13.709 19.756,13.255 19.666,13.303 		"/>
		<polygon fill="#F7AF69" points="19.717,13.709 19.441,13.425 19.669,13.301 		"/>
		<polygon fill="#F7AF69" points="19.753,13.244 19.945,13.139 19.719,13.711 		"/>
		<polygon fill="#F18C2A" points="19.639,12.879 19.634,12.885 19.675,13.295 		"/>
		<polygon fill="#F0861F" points="19.512,13.032 19.503,13.042 19.673,13.307 		"/>
		<polygon fill="#F0861F" points="19.444,13.413 19.671,13.301 19.44,13.428 		"/>
		<polygon fill="#F0861F" points="19.945,13.139 19.75,13.26 19.751,13.245 		"/>
		<polygon fill="#F0861F" points="19.763,12.937 19.76,13.032 19.802,12.979 		"/>
		<polygon fill="#FACB99" points="19.869,12.894 19.802,12.979 19.763,12.937 		"/>
	</g>
</g>
</svg>
