<?xml version="1.0" encoding="utf-8"?>
<!-- Generator: Adobe Illustrator 17.0.0, SVG Export Plug-In . SVG Version: 6.00 Build 0)  -->
<!DOCTYPE svg PUBLIC "-//W3C//DTD SVG 1.1//EN" "http://www.w3.org/Graphics/SVG/1.1/DTD/svg11.dtd">
<svg version="1.1" id="Layer_1" xmlns="http://www.w3.org/2000/svg" xmlns:xlink="http://www.w3.org/1999/xlink" x="0px" y="0px"
	 width="126px" height="126px" viewBox="0 0 126 126" enable-background="new 0 0 126 126" xml:space="preserve">
<g>
	<path d="M95.728,26.854c-0.146-0.09-0.301-0.148-0.453-0.218c-1.237-0.813-2.623-1.41-4.034-1.757l-2.814,2.831l-2.728-2.863
		c-0.009,0.003-0.019,0.003-0.028,0.006c-1.352,0.323-2.679,0.883-3.88,1.639c-0.3,0.091-0.596,0.209-0.88,0.37
		c-1.749,0.982-3.413,1.174-5.232,0.607c-6.03-1.879-11.647-11.08-13.3-14.462c-0.44-0.909-1.162-1.579-2.001-1.996l-1.202-0.4
		c-0.873-0.15-1.797-0.049-2.656,0.369c-2.178,1.057-3.085,3.681-2.028,5.858c0.257,0.529,1.214,2.436,2.765,4.866l1.034,1.563
		c3.236,4.71,8.349,10.561,14.758,12.567c1.271,0.397,2.547,0.618,3.82,0.685v23.104c0,1.193,0.235,2.304,0.645,3.325
		c-0.029,0.219-0.067,0.435-0.067,0.661l0.003,41.983c0.001,2.863,2.32,5.182,5.182,5.182c2.862-0.001,5.182-2.32,5.182-5.182
		l-0.003-36.031c0.206,0.01,0.41,0.025,0.617,0.025c0.041,0,0.081-0.004,0.122-0.005l-0.001,36.01c0,2.861,2.319,5.182,5.18,5.182
		c0.001,0,0.001,0,0.001,0c2.861,0,5.181-2.32,5.181-5.182l0.001-41.187c0.273,0.26,0.571,0.5,0.916,0.689
		c0.666,0.362,1.384,0.533,2.091,0.533c1.555,0,3.061-0.828,3.855-2.29C118.145,40.603,101.272,30.255,95.728,26.854z
		 M88.454,50.062h-0.052l-2.724-3.727l2.724-18.204h0.052l2.724,18.204L88.454,50.062z M99.987,55.034V42.496
		C101.661,45.663,102.036,49.673,99.987,55.034z"/>
</g>
<g>
	<circle cx="88.427" cy="12.931" r="11.293"/>
</g>
<g>
	<rect x="11.378" y="113.257" width="102.236" height="12.743"/>
</g>
<g>
	<polygon fill="#EF7D1A" points="94.472,34.165 94.587,34.238 93.904,34.876 	"/>
	<polygon fill="#F3963A" points="92.674,38.428 93.07,35.965 94.187,37.636 	"/>
	<polygon fill="#F5A352" points="93.937,34.933 93.07,35.967 94.183,37.709 	"/>
	<polygon fill="#F7AF69" points="94.634,34.188 93.912,34.865 94.166,37.625 	"/>
	<polygon fill="#F8BC80" points="93.879,32.938 93.904,34.876 94.608,34.039 	"/>
	<polygon fill="#F3963A" points="94.728,35.301 95.888,36.586 94.642,37.358 	"/>
	<polygon fill="#EF7D1A" points="94.433,40.221 94.681,37.33 94.106,37.634 	"/>
	<polygon fill="#F7AF69" points="94.433,40.221 92.67,38.414 94.128,37.624 	"/>
	<polygon fill="#F7AF69" points="94.661,37.259 95.888,36.586 94.446,40.237 	"/>
	<polygon fill="#F18C2A" points="93.937,34.933 93.904,34.972 94.167,37.586 	"/>
	<polygon fill="#F0861F" points="93.125,35.907 93.07,35.967 94.154,37.662 	"/>
	<polygon fill="#F0861F" points="92.692,38.336 94.136,37.624 92.667,38.434 	"/>
	<polygon fill="#F0861F" points="95.888,36.586 94.642,37.358 94.646,37.267 	"/>
	<polygon fill="#F0861F" points="94.727,35.301 94.704,35.907 94.974,35.566 	"/>
	<polygon fill="#FACB99" points="95.401,35.026 94.974,35.566 94.727,35.301 	"/>
</g>
<ellipse cx="36.512" cy="26.817" rx="8.668" ry="8.829"/>
<g>
	<path d="M47.794,96.363c1.245,0.197,3.211,0,3.211,0s-1.835-10.549-2.293-14.742c-0.459-4.193-3.276-15.548-4.324-17.471
		c-0.365-0.67-0.644-1.306-0.82-1.955c-5.005,0.69-10.125,0.732-15.096-0.126c-0.172,0.693-0.469,1.368-0.858,2.081
		c-1.048,1.923-3.866,13.278-4.324,17.471c-0.459,4.193-2.293,14.742-2.293,14.742s1.966,0.197,3.211,0s0.328,1.31,0.328,1.31
		c1.638,0.983,4.324-0.721,4.98,0.393c0.655,1.114,4.586,0.524,4.193,0.131s1.376-1.179,1.179-0.197
		C34.69,98.984,36,98.525,36,98.525s1.31,0.459,1.114-0.524c-0.197-0.983,1.573-0.197,1.179,0.197s3.538,0.983,4.193-0.131
		c0.655-1.114,3.342,0.59,4.98-0.393C47.466,97.673,46.549,96.167,47.794,96.363z"/>
	<path d="M44.759,40.033c-1.583,5.125-3.458,7.727-5.577,7.727c-1.504,0-2.663-1.332-3.182-2.055
		c-0.519,0.724-1.679,2.055-3.182,2.055c-2.118,0-3.994-2.602-5.577-7.727l-0.938,0.375c0,0,0.852,3.211,0.328,6.093
		c-0.524,2.883,0.459,9.107,1.442,11.597c0.388,0.983,0.555,1.831,0.558,2.618c4.852,0.86,9.858,0.826,14.745,0.143
		c-0.018-0.828,0.14-1.718,0.552-2.762c0.983-2.49,1.966-8.714,1.442-11.597s0.328-6.093,0.328-6.093L44.759,40.033z"/>
	<path d="M43.093,39.212c-0.827-0.15-1.28-0.588-2.062-0.588c-0.241,0-0.513,0.042-0.837,0.146c0,0,3.281,3.527-4.193,6.326
		c-7.474-2.799-4.193-6.326-4.193-6.326c-0.324-0.104-0.596-0.146-0.837-0.146c-0.783,0-1.236,0.438-2.062,0.588
		c-1.081,0.197-1.425,0.59-1.425,0.59c0.013,0.042,0.025,0.078,0.038,0.119c1.823,5.917,3.743,7.539,5.297,7.539
		c1.71,0,2.976-1.957,3.182-2.296c0.207,0.339,1.473,2.296,3.182,2.296c1.554,0,3.474-1.621,5.297-7.539
		c0.013-0.041,0.025-0.078,0.038-0.119C44.518,39.802,44.174,39.409,43.093,39.212z"/>
</g>
<g>
	<path d="M34,96.5c-0.61-0.002-1.152-0.106-1.647-0.27c-0.378,0.175-0.77,0.327-1.191,0.424c-1.458,0.338-2.934,0.049-4.103-0.713
		l0.001,10.753c0.001,2.489,2.017,4.505,4.505,4.505c2.488-0.001,4.505-2.017,4.505-4.505l-0.001-10.02
		C35.383,96.576,34.694,96.502,34,96.5z"/>
	<path d="M42.952,38.239c-0.127-0.078-0.262-0.129-0.394-0.19c-1.015-0.667-2.145-1.159-3.3-1.467
		c0.082,0.101,0.164,0.202,0.234,0.322c0.635,1.085,0.344,2.856-0.897,3.42c-1.631,0.742-3.226,0.742-4.857,0
		c-1.229-0.559-1.524-2.3-0.912-3.387c-0.69,0.265-1.362,0.59-1.992,0.987c-0.261,0.079-0.518,0.182-0.765,0.322
		c-1.521,0.854-2.967,1.021-4.549,0.528c-5.243-1.634-10.126-9.633-11.563-12.573c-0.383-0.79-1.01-1.373-1.74-1.735l-1.045-0.348
		c-0.759-0.13-1.562-0.043-2.309,0.321c-1.894,0.919-2.682,3.2-1.763,5.093c0.223,0.46,1.055,2.118,2.404,4.231l0.899,1.359
		c2.813,4.095,7.259,9.182,12.831,10.926c1.105,0.345,2.214,0.537,3.321,0.596v0.209c0.078-0.043,0.168-0.073,0.254-0.106
		c-0.147-1.014-0.022-2.073,0.375-3.008c0.096-2.134,1.386-4.165,3.837-4.609c-0.148,0.179-0.267,0.379-0.367,0.589
		c-0.317,0.061-0.634,0.134-0.951,0.223c-1.196,0.334-2.325,1.578-2.203,2.893c0.438,4.706,4.186,7.548,8.741,7.842
		c3.508,0.226,6.233-1.903,6.876-4.9c0.333-0.307,0.567-0.695,0.723-1.115c0.37-0.131,0.684-0.327,0.942-0.574
		c0.158,0.361,0.265,0.743,0.342,1.133c0.297,0.476,0.492,1.01,0.623,1.56c0.113,0.167,0.224,0.337,0.32,0.53
		c1.53,3.097,2.837,7.264,2.389,10.964c-0.012,0.139-0.037,0.273-0.054,0.41c-0.016,0.098-0.026,0.196-0.044,0.293
		c-0.133,0.861-0.378,1.685-0.763,2.455c-0.009,0.049-0.015,0.098-0.024,0.147c-0.15,0.759-0.514,1.419-1.01,1.965
		c-0.371,0.963-0.948,1.886-1.693,2.742c-0.035,0.04-0.079,0.065-0.115,0.103c-0.044,0.082-0.081,0.167-0.129,0.247
		c0.133,0.476,0.204,0.971,0.209,1.469c0.305,0.544,0.521,1.141,0.606,1.781c0.174,0.351,0.31,0.722,0.403,1.107
		c0.205,0.183,0.423,0.356,0.673,0.493c0.579,0.315,1.203,0.463,1.818,0.463c1.352,0,2.661-0.72,3.352-1.991
		C62.441,50.193,47.772,41.196,42.952,38.239z"/>
	<path d="M41.777,97.188c-1.713,0.21-3.387-0.14-5.066-0.413l0,9.92c0,2.487,2.016,4.505,4.504,4.505c0.001,0,0.001,0,0.001,0
		c2.487,0,4.504-2.017,4.504-4.505l0-11.021C44.632,96.475,43.297,97.001,41.777,97.188z"/>
</g>
<g>
	<polygon fill="#EF7D1A" points="39.637,44.29 39.725,44.346 39.198,44.839 	"/>
	<polygon fill="#F3963A" points="38.249,47.58 38.555,45.679 39.417,46.968 	"/>
	<polygon fill="#F5A352" points="39.224,44.883 38.555,45.681 39.414,47.025 	"/>
	<polygon fill="#F7AF69" points="39.762,44.308 39.204,44.83 39.4,46.96 	"/>
	<polygon fill="#F8BC80" points="39.179,43.343 39.198,44.839 39.742,44.193 	"/>
	<polygon fill="#F3963A" points="39.834,45.167 40.729,46.158 39.768,46.754 	"/>
	<polygon fill="#EF7D1A" points="39.606,48.963 39.798,46.732 39.354,46.967 	"/>
	<polygon fill="#F7AF69" points="39.606,48.963 38.246,47.569 39.371,46.959 	"/>
	<polygon fill="#F7AF69" points="39.782,46.678 40.729,46.158 39.616,48.976 	"/>
	<polygon fill="#F18C2A" points="39.224,44.883 39.198,44.913 39.401,46.93 	"/>
	<polygon fill="#F0861F" points="38.597,45.634 38.555,45.681 39.391,46.989 	"/>
	<polygon fill="#F0861F" points="38.263,47.509 39.377,46.959 38.244,47.584 	"/>
	<polygon fill="#F0861F" points="40.729,46.158 39.768,46.754 39.771,46.684 	"/>
	<polygon fill="#F0861F" points="39.833,45.167 39.816,45.634 40.024,45.371 	"/>
	<polygon fill="#FACB99" points="40.353,44.954 40.024,45.371 39.833,45.167 	"/>
</g>
</svg>
